<svg width="249" height="72" viewBox="0 0 249 72" fill="none" xmlns="http://www.w3.org/2000/svg">
<path d="M239.778 72H9.22222C4.15231 72 0 67.9478 0 63V9.00001C0 4.05226 4.15231 6.67572e-06 9.22222 6.67572e-06H239.778C244.848 6.67572e-06 249 4.05226 249 9.00001V63C249 67.9478 244.848 72 239.778 72Z" fill="#162542"/>
<path d="M239.778 1.44225C244.048 1.44225 247.522 4.83301 247.522 9.00001V63C247.522 67.167 244.048 70.5578 239.778 70.5578H9.22222C4.95233 70.5578 1.47786 67.167 1.47786 63V9.00001C1.47786 4.83301 4.95233 1.44225 9.22222 1.44225H239.778ZM239.778 6.67572e-06H9.22222C4.15231 6.67572e-06 0 4.05226 0 9.00001V63C0 67.9478 4.15231 72 9.22222 72H239.778C244.848 72 249 67.9478 249 63V9.00001C249 4.05226 244.848 6.67572e-06 239.778 6.67572e-06Z" fill="#3C588F"/>
<path d="M17.8635 13.5705C17.3217 14.124 17.0082 14.9858 17.0082 16.1018V55.9088C17.0082 57.0248 17.3217 57.8865 17.8635 58.44L17.9973 58.5615L40.8545 36.264V35.7375L17.9973 13.44L17.8635 13.5705Z" fill="#FAF8ED"/>
<path d="M51.2317 43.7002L43.6211 36.2639V35.7374L51.241 28.3012L51.4116 28.3979L60.4355 33.4087C63.0108 34.8307 63.0108 37.1707 60.4355 38.6017L51.4116 43.6034L51.2317 43.7002V43.7002Z" fill="#FAF8ED"/>
<path d="M50.0283 44.9872L42.2378 37.3845L19.2468 59.8237C20.1022 60.7012 21.497 60.807 23.0833 59.9295L50.0283 44.9872" fill="#FAF8ED"/>
<path d="M50.0283 27.0125L23.0833 12.0702C21.497 11.2017 20.1022 11.3075 19.2468 12.185L42.2378 34.6152L50.0283 27.0125Z" fill="#FAF8ED"/>
<path d="M87.4589 18.4382C87.4589 19.9412 86.9978 21.1449 86.0894 22.0427C85.045 23.1069 83.6847 23.6424 82.0178 23.6424C80.4246 23.6424 79.0644 23.0979 77.9485 22.0247C76.8303 20.9357 76.2723 19.5992 76.2723 17.9994C76.2723 16.3997 76.8303 15.0632 77.9485 13.9832C79.0644 12.9009 80.4246 12.3564 82.0178 12.3564C82.8109 12.3564 83.5671 12.5162 84.2888 12.8132C85.0081 13.1124 85.5937 13.5174 86.0179 14.0169L85.0542 14.9664C84.3141 14.1137 83.3066 13.6929 82.0178 13.6929C80.8558 13.6929 79.8483 14.0889 78.9929 14.8877C78.1468 15.6887 77.7225 16.7259 77.7225 17.9994C77.7225 19.2729 78.1468 20.3192 78.9929 21.1202C79.8483 21.9099 80.8558 22.3149 82.0178 22.3149C83.2513 22.3149 84.2888 21.9099 85.1072 21.1112C85.6467 20.5824 85.9534 19.8534 86.0341 18.9219H82.0178V17.6214H87.3759C87.4404 17.9027 87.4589 18.1749 87.4589 18.4382V18.4382Z" fill="#FAF8ED" stroke="#FAF8ED" stroke-width="0.16" stroke-miterlimit="10"/>
<path d="M95.9595 13.9297H90.9264V17.3497H95.4638V18.6502H90.9264V22.0702H95.9595V23.3955H89.5016V12.6045H95.9595V13.9297Z" fill="#FAF8ED" stroke="#FAF8ED" stroke-width="0.16" stroke-miterlimit="10"/>
<path d="M101.959 23.3955H100.534V13.9297H97.4465V12.6045H105.048V13.9297H101.959V23.3955V23.3955Z" fill="#FAF8ED" stroke="#FAF8ED" stroke-width="0.16" stroke-miterlimit="10"/>
<path d="M110.549 23.3955V12.6045H111.972V23.3955H110.549Z" fill="#FAF8ED" stroke="#FAF8ED" stroke-width="0.16" stroke-miterlimit="10"/>
<path d="M118.277 23.3955H116.864V13.9297H113.765V12.6045H121.376V13.9297H118.277V23.3955Z" fill="#FAF8ED" stroke="#FAF8ED" stroke-width="0.16" stroke-miterlimit="10"/>
<path d="M135.767 22.0067C134.677 23.0979 133.326 23.6424 131.714 23.6424C130.093 23.6424 128.742 23.0979 127.652 22.0067C126.563 20.9177 126.022 19.5812 126.022 17.9994C126.022 16.4177 126.563 15.0812 127.652 13.9922C128.742 12.9009 130.093 12.3564 131.714 12.3564C133.316 12.3564 134.667 12.9009 135.758 14.0012C136.855 15.0992 137.397 16.4267 137.397 17.9994C137.397 19.5812 136.855 20.9177 135.767 22.0067ZM128.705 21.1022C129.526 21.9099 130.524 22.3149 131.714 22.3149C132.894 22.3149 133.902 21.9099 134.714 21.1022C135.532 20.2944 135.947 19.2572 135.947 17.9994C135.947 16.7417 135.532 15.7044 134.714 14.8967C133.902 14.0889 132.894 13.6839 131.714 13.6839C130.524 13.6839 129.526 14.0889 128.705 14.8967C127.887 15.7044 127.472 16.7417 127.472 17.9994C127.472 19.2572 127.887 20.2944 128.705 21.1022V21.1022Z" fill="#FAF8ED" stroke="#FAF8ED" stroke-width="0.16" stroke-miterlimit="10"/>
<path d="M139.396 23.3955V12.6045H141.125L146.502 20.997H146.564L146.502 18.9225V12.6045H147.924V23.3955H146.44L140.809 14.589H140.747L140.809 16.6725V23.3955H139.396V23.3955Z" fill="#FAF8ED" stroke="#FAF8ED" stroke-width="0.16" stroke-miterlimit="10"/>
<path d="M125.671 39.1548C121.339 39.1548 117.8 42.3723 117.8 46.8116C117.8 51.2148 121.339 54.4661 125.671 54.4661C130.012 54.4661 133.552 51.2148 133.552 46.8116C133.552 42.3723 130.012 39.1548 125.671 39.1548ZM125.671 51.4511C123.294 51.4511 121.249 49.5363 121.249 46.8116C121.249 44.0508 123.294 42.1698 125.671 42.1698C128.048 42.1698 130.102 44.0508 130.102 46.8116C130.102 49.5363 128.048 51.4511 125.671 51.4511V51.4511ZM108.497 39.1548C104.156 39.1548 100.626 42.3723 100.626 46.8116C100.626 51.2148 104.156 54.4661 108.497 54.4661C112.836 54.4661 116.368 51.2148 116.368 46.8116C116.368 42.3723 112.836 39.1548 108.497 39.1548ZM108.497 51.4511C106.118 51.4511 104.066 49.5363 104.066 46.8116C104.066 44.0508 106.118 42.1698 108.497 42.1698C110.874 42.1698 112.919 44.0508 112.919 46.8116C112.919 49.5363 110.874 51.4511 108.497 51.4511ZM88.0606 41.5016V44.7551H96.0217C95.7888 46.5731 95.1663 47.9096 94.2118 48.8411C93.0498 49.9661 91.24 51.2148 88.0606 51.2148C83.1613 51.2148 79.3249 47.3561 79.3249 42.5748C79.3249 37.7936 83.1613 33.9349 88.0606 33.9349C90.7097 33.9349 92.6371 34.9451 94.0597 36.2546L96.409 33.9618C94.4193 32.1078 91.7726 30.6836 88.0606 30.6836C81.3422 30.6836 75.6959 36.0184 75.6959 42.5748C75.6959 49.1313 81.3422 54.4661 88.0606 54.4661C91.6919 54.4661 94.4193 53.3051 96.5635 51.1271C98.7607 48.9828 99.4454 45.9678 99.4454 43.5333C99.4454 42.7773 99.3809 42.0821 99.2656 41.5016H88.0606ZM171.628 44.0238C170.98 42.3116 168.981 39.1548 164.909 39.1548C160.875 39.1548 157.515 42.2576 157.515 46.8116C157.515 51.1001 160.84 54.4661 165.297 54.4661C168.9 54.4661 170.98 52.3218 171.835 51.0731L169.161 49.3338C168.269 50.6073 167.054 51.4511 165.297 51.4511C163.551 51.4511 162.299 50.6703 161.497 49.1313L171.99 44.8946L171.628 44.0238V44.0238ZM160.93 46.5731C160.84 43.6211 163.279 42.1091 165.027 42.1091C166.396 42.1091 167.558 42.7773 167.946 43.7336L160.93 46.5731V46.5731ZM152.402 54.0003H155.851V31.5004H152.402V54.0003ZM146.753 40.8603H146.638C145.863 39.9648 144.385 39.1548 142.513 39.1548C138.585 39.1548 134.992 42.5208 134.992 46.8363C134.992 51.1271 138.585 54.4661 142.513 54.4661C144.385 54.4661 145.863 53.6493 146.638 52.7268H146.753V53.8248C146.753 56.7521 145.151 58.3248 142.566 58.3248C140.459 58.3248 139.152 56.8398 138.612 55.5911L135.613 56.8128C136.477 58.8423 138.767 61.3398 142.566 61.3398C146.61 61.3398 150.022 59.0178 150.022 53.3681V39.6206H146.753V40.8603V40.8603ZM142.808 51.4511C140.431 51.4511 138.442 49.5093 138.442 46.8363C138.442 44.1386 140.431 42.1698 142.808 42.1698C145.151 42.1698 146.998 44.1386 146.998 46.8363C146.998 49.5093 145.151 51.4511 142.808 51.4511V51.4511ZM187.776 31.5004H179.527V54.0003H182.966V45.4751H187.776C191.596 45.4751 195.343 42.7773 195.343 38.4866C195.343 34.1981 191.587 31.5004 187.776 31.5004V31.5004ZM187.866 42.3453H182.966V34.6301H187.866C190.434 34.6301 191.9 36.7113 191.9 38.4866C191.9 40.2281 190.434 42.3453 187.866 42.3453ZM209.13 39.1121C206.645 39.1121 204.06 40.1831 202.997 42.5568L206.05 43.8056C206.707 42.5568 207.915 42.1518 209.192 42.1518C210.977 42.1518 212.787 43.1981 212.814 45.0453V45.2816C212.192 44.9306 210.859 44.4108 209.22 44.4108C205.932 44.4108 202.582 46.1771 202.582 49.4733C202.582 52.4883 205.275 54.4301 208.302 54.4301C210.617 54.4301 211.894 53.4108 212.697 52.2251H212.814V53.9643H216.136V45.3333C216.136 41.3441 213.084 39.1121 209.13 39.1121ZM208.715 51.4421C207.59 51.4421 206.022 50.8976 206.022 49.5363C206.022 47.7948 207.977 47.1266 209.669 47.1266C211.184 47.1266 211.894 47.4528 212.814 47.8826C212.544 49.9661 210.707 51.4421 208.715 51.4421V51.4421ZM228.241 39.6048L224.287 49.3586H224.169L220.081 39.6048H216.372L222.514 53.2353L219.009 60.8201H222.604L232.068 39.6048H228.241V39.6048ZM197.233 54.0003H200.682V31.5004H197.233V54.0003Z" fill="#FAF8ED"/>
</svg>
