<svg width="159" height="46" viewBox="0 0 159 46" fill="none" xmlns="http://www.w3.org/2000/svg">
<path d="M153.111 0.92144C155.838 0.92144 158.056 3.08775 158.056 5.75V40.25C158.056 42.9123 155.838 45.0786 153.111 45.0786H5.88889C3.16233 45.0786 0.943694 42.9123 0.943694 40.25V5.75C0.943694 3.08775 3.16233 0.92144 5.88889 0.92144H153.111ZM153.111 3.8147e-06H5.88889C2.65147 3.8147e-06 0 2.58894 0 5.75V40.25C0 43.4111 2.65147 46 5.88889 46H153.111C156.349 46 159 43.4111 159 40.25V5.75C159 2.58894 156.349 3.8147e-06 153.111 3.8147e-06Z" fill="#0D1323"/>
<path d="M35.4841 22.7515C35.45 19.045 38.5923 17.2418 38.736 17.1579C36.9563 14.6244 34.198 14.2783 33.2287 14.2507C30.912 14.0126 28.6648 15.6042 27.4846 15.6042C26.281 15.6042 24.4636 14.2737 22.505 14.3128C19.9846 14.3507 17.6266 15.7756 16.3334 17.9882C13.6646 22.4996 15.655 29.1294 18.212 32.776C19.4911 34.562 20.9857 36.5561 22.942 36.4859C24.8558 36.4089 25.5708 35.2945 27.8804 35.2945C30.1688 35.2945 30.8401 36.4859 32.8353 36.4411C34.8893 36.4089 36.1825 34.6471 37.4168 32.845C38.895 30.798 39.4886 28.7821 39.5121 28.6786C39.4638 28.6625 35.523 27.1939 35.4841 22.7515Z" fill="#0D1323"/>
<path d="M31.7152 11.8518C32.7446 10.5948 33.4489 8.88476 33.2534 7.14941C31.7635 7.21381 29.9003 8.15566 28.8273 9.38501C27.878 10.4683 27.03 12.2439 27.2491 13.9137C28.9227 14.0356 30.6411 13.0892 31.7152 11.8518Z" fill="#0D1323"/>
<path d="M57.77 11.5105C57.77 12.864 57.3542 13.8829 56.5239 14.5672C55.7548 15.1985 54.6618 15.5148 53.2461 15.5148C52.5442 15.5148 51.9435 15.4849 51.4406 15.4251V8.02945C52.0966 7.92595 52.8033 7.87305 53.5665 7.87305C54.9151 7.87305 55.9315 8.1594 56.617 8.7321C57.3849 9.37955 57.77 10.3053 57.77 11.5105ZM56.4686 11.5438C56.4686 10.6664 56.2306 9.99365 55.7548 9.52445C55.279 9.0564 54.5841 8.8218 53.669 8.8218C53.2803 8.8218 52.9493 8.8471 52.6749 8.9V14.5223C52.8269 14.5453 53.1048 14.5557 53.5088 14.5557C54.4534 14.5557 55.1824 14.2992 55.6959 13.7863C56.2094 13.2734 56.4686 12.5259 56.4686 11.5438Z" fill="#0D1323"/>
<path d="M64.6706 12.6921C64.6706 13.5259 64.4268 14.209 63.9392 14.7449C63.428 15.2957 62.7508 15.5706 61.9052 15.5706C61.0901 15.5706 60.4412 15.3072 59.9571 14.7782C59.4742 14.2504 59.2328 13.5845 59.2328 12.7818C59.2328 11.9423 59.4813 11.2535 59.9807 10.7187C60.4801 10.184 61.1514 9.91602 61.997 9.91602C62.8121 9.91602 63.4669 10.1794 63.9627 10.7072C64.4339 11.2201 64.6706 11.8825 64.6706 12.6921ZM63.3903 12.7312C63.3903 12.231 63.2796 11.802 63.0594 11.4444C62.8003 11.012 62.4316 10.7958 61.9523 10.7958C61.4564 10.7958 61.0795 11.012 60.8204 11.4444C60.599 11.802 60.4895 12.2379 60.4895 12.7531C60.4895 13.2533 60.6002 13.6823 60.8204 14.0399C61.0878 14.4723 61.46 14.6885 61.9405 14.6885C62.4116 14.6885 62.7814 14.4689 63.0476 14.0284C63.2761 13.6639 63.3903 13.2315 63.3903 12.7312Z" fill="#0D1323"/>
<path d="M73.9232 10.0264L72.186 15.4475H71.0553L70.3357 13.0934C70.1531 12.5058 70.0047 11.9216 69.8893 11.342H69.8669C69.7597 11.9377 69.6113 12.5207 69.4205 13.0934L68.6562 15.4475H67.5125L65.879 10.0264H67.1474L67.7752 12.6035C67.9271 13.213 68.052 13.7938 68.1521 14.3435H68.1745C68.2663 13.8904 68.4183 13.3131 68.6326 12.615L69.4205 10.0275H70.4264L71.1813 12.5598C71.3639 13.1774 71.5123 13.7719 71.6265 14.3446H71.6607C71.7443 13.7869 71.8703 13.1923 72.0376 12.5598L72.7113 10.0275H73.9232V10.0264Z" fill="#0D1323"/>
<path d="M80.3221 15.448H79.0878V12.343C79.0878 11.3862 78.7156 10.9078 77.9689 10.9078C77.6026 10.9078 77.307 11.0389 77.0773 11.3023C76.85 11.5656 76.7346 11.8761 76.7346 12.2315V15.4469H75.5003V11.576C75.5003 11.0999 75.4849 10.5835 75.4555 10.0246H76.5402L76.5979 10.8722H76.6321C76.7758 10.6088 76.9901 10.3915 77.2716 10.2178C77.6061 10.0154 77.9807 9.91309 78.3905 9.91309C78.9087 9.91309 79.3398 10.0764 79.6825 10.4041C80.1089 10.8055 80.3221 11.4046 80.3221 12.2004V15.448V15.448Z" fill="#0D1323"/>
<path d="M83.7259 15.4476H82.4927V7.53906H83.7259V15.4476Z" fill="#0D1323"/>
<path d="M90.9927 12.6921C90.9927 13.5259 90.7489 14.209 90.2613 14.7449C89.7502 15.2957 89.0718 15.5706 88.2273 15.5706C87.4111 15.5706 86.7622 15.3072 86.2793 14.7782C85.7964 14.2504 85.5549 13.5845 85.5549 12.7818C85.5549 11.9423 85.8034 11.2535 86.3028 10.7187C86.8022 10.184 87.4735 9.91602 88.318 9.91602C89.1342 9.91602 89.7879 10.1794 90.2849 10.7072C90.756 11.2201 90.9927 11.8825 90.9927 12.6921ZM89.7113 12.7312C89.7113 12.231 89.6006 11.802 89.3804 11.4444C89.1224 11.012 88.7526 10.7958 88.2744 10.7958C87.7774 10.7958 87.4005 11.012 87.1426 11.4444C86.9212 11.802 86.8116 12.2379 86.8116 12.7531C86.8116 13.2533 86.9223 13.6823 87.1426 14.0399C87.4099 14.4723 87.7821 14.6885 88.2626 14.6885C88.7338 14.6885 89.1024 14.4689 89.3686 14.0284C89.5982 13.6639 89.7113 13.2315 89.7113 12.7312Z" fill="#0D1323"/>
<path d="M96.9664 15.4475H95.8582L95.7663 14.8231H95.7321C95.3529 15.321 94.8123 15.5706 94.1103 15.5706C93.5862 15.5706 93.1622 15.4061 92.8431 15.0795C92.5533 14.7828 92.4084 14.4137 92.4084 13.9755C92.4084 13.3131 92.6911 12.8083 93.26 12.4587C93.8277 12.1091 94.6262 11.9377 95.6544 11.9458V11.8446C95.6544 11.1304 95.2704 10.7739 94.5014 10.7739C93.9537 10.7739 93.4708 10.9085 93.0539 11.1753L92.803 10.3841C93.3189 10.0724 93.956 9.91602 94.7075 9.91602C96.1585 9.91602 96.8864 10.6635 96.8864 12.1585V14.1549C96.8864 14.6966 96.9134 15.1278 96.9664 15.4475ZM95.685 13.5845V12.7485C94.3235 12.7255 93.6428 13.09 93.6428 13.841C93.6428 14.1239 93.7205 14.3355 93.8795 14.4769C94.0385 14.6184 94.2411 14.6885 94.4825 14.6885C94.7534 14.6885 95.0066 14.6046 95.2375 14.4378C95.4695 14.2699 95.612 14.0572 95.665 13.7961C95.678 13.7375 95.685 13.6662 95.685 13.5845Z" fill="#0D1323"/>
<path d="M103.98 15.4476H102.885L102.827 14.5771H102.793C102.443 15.2395 101.847 15.5707 101.01 15.5707C100.341 15.5707 99.7837 15.3142 99.342 14.8013C98.9004 14.2884 98.6801 13.6226 98.6801 12.8049C98.6801 11.9275 98.9192 11.2168 99.3997 10.674C99.865 10.168 100.435 9.91496 101.113 9.91496C101.859 9.91496 102.381 10.1599 102.677 10.651H102.701V7.53906H103.937V13.9871C103.937 14.515 103.951 15.0014 103.98 15.4476ZM102.701 13.1614V12.2575C102.701 12.1011 102.689 11.9746 102.667 11.878C102.597 11.5882 102.448 11.3444 102.221 11.1478C101.991 10.9511 101.714 10.8522 101.395 10.8522C100.934 10.8522 100.574 11.0305 100.309 11.3881C100.046 11.7458 99.9132 12.2023 99.9132 12.7601C99.9132 13.296 100.039 13.7307 100.292 14.0653C100.56 14.4218 100.92 14.6001 101.371 14.6001C101.776 14.6001 102.1 14.4517 102.347 14.1539C102.584 13.879 102.701 13.5478 102.701 13.1614Z" fill="#0D1323"/>
<path d="M114.537 12.6921C114.537 13.5259 114.293 14.209 113.805 14.7449C113.294 15.2957 112.618 15.5706 111.771 15.5706C110.957 15.5706 110.308 15.3072 109.823 14.7782C109.34 14.2504 109.099 13.5845 109.099 12.7818C109.099 11.9423 109.347 11.2535 109.847 10.7187C110.346 10.184 111.017 9.91602 111.864 9.91602C112.678 9.91602 113.334 10.1794 113.829 10.7072C114.3 11.2201 114.537 11.8825 114.537 12.6921ZM113.257 12.7312C113.257 12.231 113.147 11.802 112.927 11.4444C112.666 11.012 112.299 10.7958 111.818 10.7958C111.324 10.7958 110.947 11.012 110.686 11.4444C110.465 11.802 110.355 12.2379 110.355 12.7531C110.355 13.2533 110.466 13.6823 110.686 14.0399C110.954 14.4723 111.326 14.6885 111.806 14.6885C112.278 14.6885 112.649 14.4689 112.915 14.0284C113.142 13.6639 113.257 13.2315 113.257 12.7312Z" fill="#0D1323"/>
<path d="M121.173 15.448H119.94V12.343C119.94 11.3862 119.568 10.9078 118.82 10.9078C118.454 10.9078 118.158 11.0389 117.93 11.3023C117.701 11.5656 117.587 11.8761 117.587 12.2315V15.4469H116.352V11.576C116.352 11.0999 116.337 10.5835 116.308 10.0246H117.391L117.449 10.8722H117.483C117.628 10.6088 117.843 10.3915 118.123 10.2178C118.459 10.0154 118.832 9.91309 119.243 9.91309C119.76 9.91309 120.191 10.0764 120.534 10.4041C120.961 10.8055 121.173 11.4046 121.173 12.2004V15.448V15.448Z" fill="#0D1323"/>
<path d="M129.48 10.9296H128.121V13.5631C128.121 14.2324 128.362 14.5671 128.841 14.5671C129.062 14.5671 129.246 14.5487 129.391 14.5107L129.422 15.425C129.179 15.5147 128.858 15.5595 128.464 15.5595C127.976 15.5595 127.597 15.4146 127.322 15.1248C127.047 14.835 126.91 14.3474 126.91 13.6632V10.9296H126.099V10.0269H126.91V9.03326L128.12 8.67676V10.0257H129.479V10.9296H129.48Z" fill="#0D1323"/>
<path d="M136.014 15.4476H134.779V12.3656C134.779 11.3939 134.407 10.9074 133.661 10.9074C133.089 10.9074 132.698 11.1892 132.483 11.7527C132.447 11.8711 132.426 12.016 132.426 12.1862V15.4465H131.193V7.53906H132.426V10.8062H132.449C132.838 10.2117 133.395 9.91496 134.117 9.91496C134.628 9.91496 135.051 10.0783 135.387 10.406C135.805 10.8143 136.014 11.4215 136.014 12.2242V15.4476V15.4476Z" fill="#0D1323"/>
<path d="M142.755 12.4801C142.755 12.6963 142.738 12.878 142.709 13.0264H139.007C139.024 13.5623 139.2 13.9705 139.543 14.2534C139.856 14.5064 140.26 14.6329 140.755 14.6329C141.303 14.6329 141.802 14.5478 142.252 14.3765L142.445 15.2137C141.919 15.4368 141.299 15.5483 140.582 15.5483C139.722 15.5483 139.045 15.3011 138.555 14.8066C138.063 14.3121 137.819 13.6485 137.819 12.8159C137.819 11.9983 138.046 11.3175 138.504 10.7747C138.982 10.1951 139.629 9.90527 140.445 9.90527C141.244 9.90527 141.85 10.1951 142.26 10.7747C142.591 11.2347 142.755 11.8039 142.755 12.4801ZM141.577 12.1685C141.587 11.8108 141.505 11.5026 141.338 11.2427C141.124 10.9081 140.797 10.7402 140.356 10.7402C139.953 10.7402 139.624 10.9035 139.374 11.2312C139.169 11.4923 139.047 11.8039 139.007 12.1685H141.577Z" fill="#0D1323"/>
<path d="M63.1819 36.23H60.5071L59.042 31.7346H53.9493L52.5536 36.23H49.9495L54.9951 20.9258H58.1115L63.1819 36.23ZM58.6003 29.8486L57.2753 25.8524C57.1351 25.4441 56.8725 24.4827 56.485 22.9693H56.4379C56.2836 23.6202 56.0351 24.5816 55.6935 25.8524L54.3921 29.8486H58.6003V29.8486Z" fill="#0D1323"/>
<path d="M76.1574 30.5763C76.1574 32.4531 75.638 33.9366 74.5992 35.0257C73.6688 35.9951 72.5134 36.4793 71.1342 36.4793C69.6455 36.4793 68.576 35.9572 67.9247 34.913H67.8776V40.7262H65.3666V28.8272C65.3666 27.6473 65.3348 26.4363 65.2736 25.1943H67.4819L67.622 26.9435H67.6692C68.5066 25.6256 69.7774 24.9678 71.4828 24.9678C72.816 24.9678 73.929 25.4818 74.8194 26.5111C75.7122 27.5415 76.1574 28.8962 76.1574 30.5763ZM73.5993 30.666C73.5993 29.5919 73.3519 28.7064 72.8549 28.0095C72.312 27.2827 71.5829 26.9193 70.669 26.9193C70.0494 26.9193 69.4865 27.1217 68.9836 27.5208C68.4795 27.9233 68.1497 28.4488 67.9954 29.0997C67.9177 29.4033 67.8788 29.6517 67.8788 29.8472V31.6872C67.8788 32.4899 68.1308 33.1673 68.6349 33.7204C69.139 34.2736 69.7939 34.5496 70.5995 34.5496C71.5452 34.5496 72.2813 34.1931 72.8078 33.4824C73.3354 32.7705 73.5993 31.8321 73.5993 30.666Z" fill="#0D1323"/>
<path d="M89.1566 30.5763C89.1566 32.4531 88.6372 33.9366 87.5972 35.0257C86.668 35.9951 85.5125 36.4793 84.1334 36.4793C82.6447 36.4793 81.5752 35.9572 80.9251 34.913H80.878V40.7262H78.367V28.8272C78.367 27.6473 78.3352 26.4363 78.2739 25.1943H80.4823L80.6224 26.9435H80.6695C81.5057 25.6256 82.7766 24.9678 84.4832 24.9678C85.8152 24.9678 86.9282 25.4818 87.821 26.5111C88.7102 27.5415 89.1566 28.8962 89.1566 30.5763ZM86.5985 30.666C86.5985 29.5919 86.3499 28.7064 85.8529 28.0095C85.31 27.2827 84.5833 26.9193 83.6682 26.9193C83.0475 26.9193 82.4857 27.1217 81.9816 27.5208C81.4775 27.9233 81.1489 28.4488 80.9946 29.0997C80.918 29.4033 80.878 29.6517 80.878 29.8472V31.6872C80.878 32.4899 81.13 33.1673 81.6318 33.7204C82.1359 34.2724 82.7907 34.5496 83.5987 34.5496C84.5444 34.5496 85.2805 34.1931 85.807 33.4824C86.3346 32.7705 86.5985 31.8321 86.5985 30.666Z" fill="#0D1323"/>
<path d="M103.69 31.9378C103.69 33.2396 103.227 34.2988 102.298 35.1164C101.277 36.01 99.8555 36.4562 98.0288 36.4562C96.3422 36.4562 94.9901 36.1388 93.9666 35.5028L94.5484 33.4593C95.6508 34.1102 96.8604 34.4368 98.1784 34.4368C99.1241 34.4368 99.8602 34.2275 100.389 33.8112C100.916 33.3949 101.178 32.836 101.178 32.1391C101.178 31.5181 100.961 30.9948 100.527 30.5705C100.095 30.1461 99.3726 29.7517 98.3644 29.3871C95.6202 28.3878 94.2493 26.9238 94.2493 24.9987C94.2493 23.7406 94.7298 22.7091 95.6921 21.9064C96.6508 21.1025 97.9298 20.7012 99.5293 20.7012C100.956 20.7012 102.14 20.9438 103.086 21.428L102.458 23.4267C101.575 22.9575 100.576 22.7229 99.4586 22.7229C98.5753 22.7229 97.8851 22.9356 97.3904 23.3588C96.9723 23.7372 96.7627 24.1983 96.7627 24.7446C96.7627 25.3495 97.0017 25.8497 97.4823 26.243C97.9004 26.6064 98.6601 26.9997 99.7625 27.4241C101.111 27.9542 102.102 28.5741 102.739 29.2848C103.374 29.9932 103.69 30.8798 103.69 31.9378Z" fill="#0D1323"/>
<path d="M111.992 27.034H109.225V32.3918C109.225 33.7546 109.712 34.4354 110.69 34.4354C111.139 34.4354 111.511 34.3974 111.805 34.3215L111.875 36.1834C111.38 36.3639 110.729 36.4548 109.922 36.4548C108.93 36.4548 108.155 36.1592 107.596 35.5693C107.039 34.9782 106.758 33.9869 106.758 32.5942V27.0317H105.11V25.1917H106.758V23.1711L109.225 22.4443V25.1917H111.992V27.034Z" fill="#0D1323"/>
<path d="M124.48 30.621C124.48 32.3173 123.983 33.7099 122.992 34.7989C121.952 35.9202 120.571 36.4791 118.851 36.4791C117.192 36.4791 115.872 35.942 114.887 34.8679C113.903 33.7938 113.411 32.438 113.411 30.8038C113.411 29.0938 113.917 27.6931 114.933 26.6041C115.947 25.5139 117.316 24.9688 119.037 24.9688C120.695 24.9688 122.029 25.5058 123.036 26.5811C124 27.6241 124.48 28.9708 124.48 30.621ZM121.875 30.7003C121.875 29.6826 121.653 28.8098 121.202 28.0818C120.675 27.2009 119.922 26.7616 118.947 26.7616C117.938 26.7616 117.171 27.2021 116.645 28.0818C116.194 28.8109 115.971 29.6975 115.971 30.7463C115.971 31.7641 116.194 32.6369 116.645 33.3637C117.188 34.2446 117.946 34.6839 118.925 34.6839C119.884 34.6839 120.636 34.2354 121.179 33.3407C121.642 32.599 121.875 31.7169 121.875 30.7003Z" fill="#0D1323"/>
<path d="M132.643 27.3506C132.394 27.3057 132.129 27.2827 131.851 27.2827C130.968 27.2827 130.285 27.6082 129.804 28.2602C129.386 28.8352 129.176 29.562 129.176 30.4395V36.2297H126.666L126.69 28.6696C126.69 27.3977 126.658 26.2397 126.596 25.1955H128.783L128.875 27.3069H128.944C129.209 26.5812 129.627 25.997 130.2 25.5589C130.759 25.1644 131.363 24.9678 132.015 24.9678C132.247 24.9678 132.456 24.9839 132.643 25.0126V27.3506Z" fill="#0D1323"/>
<path d="M143.873 30.1901C143.873 30.6294 143.843 30.9997 143.781 31.3022H136.248C136.277 32.3924 136.641 33.2261 137.341 33.8011C137.975 34.3152 138.796 34.5728 139.805 34.5728C140.92 34.5728 141.937 34.3991 142.853 34.0507L143.246 35.7527C142.177 36.2081 140.914 36.4346 139.457 36.4346C137.705 36.4346 136.329 35.9309 135.328 34.9247C134.329 33.9184 133.828 32.5672 133.828 30.8721C133.828 29.208 134.294 27.8223 135.225 26.7171C136.201 25.5372 137.518 24.9473 139.177 24.9473C140.806 24.9473 142.039 25.5372 142.876 26.7171C143.539 27.6544 143.873 28.8136 143.873 30.1901ZM141.478 29.5542C141.495 28.8274 141.331 28.1995 140.991 27.6693C140.556 26.9874 139.888 26.647 138.99 26.647C138.169 26.647 137.501 26.9793 136.991 27.6463C136.573 28.1765 136.324 28.8124 136.248 29.553H141.478V29.5542Z" fill="#0D1323"/>
</svg>
