<svg width="249" height="72" viewBox="0 0 249 72" fill="none" xmlns="http://www.w3.org/2000/svg">
<path d="M247.617 63.6964C247.617 67.5334 244.447 70.6414 240.526 70.6414H8.48322C4.56434 70.6414 1.38336 67.5334 1.38336 63.6964V8.31245C1.38336 4.47729 4.56434 1.3584 8.48322 1.3584H240.524C244.447 1.3584 247.615 4.47729 247.615 8.31245L247.617 63.6964Z" fill="#162542"/>
<path d="M239.778 1.44225C244.048 1.44225 247.522 4.833 247.522 9V63C247.522 67.167 244.048 70.5578 239.778 70.5578H9.22222C4.95233 70.5578 1.47786 67.167 1.47786 63V9C1.47786 4.833 4.95233 1.44225 9.22222 1.44225H239.778ZM239.778 0H9.22222C4.15231 0 0 4.05225 0 9V63C0 67.9477 4.15231 72 9.22222 72H239.778C244.848 72 249 67.9477 249 63V9C249 4.05225 244.848 0 239.778 0Z" fill="#3C588F"/>
<path d="M55.5695 35.611C55.516 29.8096 60.4369 26.9872 60.662 26.8558C57.875 22.8904 53.5553 22.3486 52.0373 22.3054C48.4093 21.9328 44.8901 24.424 43.042 24.424C41.157 24.424 38.311 22.3414 35.2437 22.4026C31.2966 22.462 27.604 24.6922 25.5788 28.1554C21.3993 35.2168 24.5164 45.5938 28.5207 51.3016C30.5237 54.097 32.8643 57.2182 35.928 57.1084C38.9252 56.9878 40.0448 55.2436 43.6617 55.2436C47.2455 55.2436 48.2968 57.1084 51.4213 57.0382C54.638 56.9878 56.6632 54.2302 58.5962 51.4096C60.911 48.2056 61.8406 45.0502 61.8775 44.8882C61.8018 44.863 55.6303 42.5644 55.5695 35.611Z" fill="#FAF8ED"/>
<path d="M49.6672 18.5506C51.2793 16.5832 52.3823 13.9066 52.0761 11.1904C49.7429 11.2912 46.8249 12.7654 45.1447 14.6896C43.658 16.3852 42.33 19.1644 42.6731 21.778C45.2941 21.9688 47.9851 20.4874 49.6672 18.5506Z" fill="#FAF8ED"/>
<path d="M90.47 18.0166C90.47 20.1352 89.819 21.73 88.5186 22.801C87.3142 23.7892 85.6025 24.2842 83.3855 24.2842C82.2862 24.2842 81.3456 24.2374 80.558 24.1438V12.568C81.5853 12.406 82.692 12.3232 83.8872 12.3232C85.9991 12.3232 87.5909 12.7714 88.6643 13.6678C89.8669 14.6812 90.47 16.1302 90.47 18.0166ZM88.4319 18.0688C88.4319 16.6954 88.0593 15.6424 87.3142 14.908C86.569 14.1754 85.4808 13.8082 84.0477 13.8082C83.439 13.8082 82.9207 13.8478 82.491 13.9306V22.7308C82.7289 22.7668 83.1642 22.783 83.7968 22.783C85.2761 22.783 86.4178 22.3816 87.222 21.5788C88.0262 20.776 88.4319 19.606 88.4319 18.0688Z" fill="#FAF8ED"/>
<path d="M101.277 19.8667C101.277 21.1717 100.895 22.2409 100.131 23.0797C99.3307 23.9419 98.2702 24.3721 96.9459 24.3721C95.6695 24.3721 94.6532 23.9599 93.8951 23.1319C93.1389 22.3057 92.7608 21.2635 92.7608 20.0071C92.7608 18.6931 93.15 17.6149 93.932 16.7779C94.7141 15.9409 95.7654 15.5215 97.0897 15.5215C98.3661 15.5215 99.3916 15.9337 100.168 16.7599C100.906 17.5627 101.277 18.5995 101.277 19.8667ZM99.2717 19.9279C99.2717 19.1449 99.0983 18.4735 98.7534 17.9137C98.3476 17.2369 97.7703 16.8985 97.0196 16.8985C96.2431 16.8985 95.6529 17.2369 95.2471 17.9137C94.9004 18.4735 94.7288 19.1557 94.7288 19.9621C94.7288 20.7451 94.9022 21.4165 95.2471 21.9763C95.6658 22.6531 96.2487 22.9915 97.0012 22.9915C97.739 22.9915 98.3181 22.6477 98.735 21.9583C99.0928 21.3877 99.2717 20.7109 99.2717 19.9279Z" fill="#FAF8ED"/>
<path d="M115.767 15.6943L113.046 24.1795H111.275L110.148 20.4949C109.862 19.5751 109.63 18.6607 109.449 17.7535H109.414C109.246 18.6859 109.014 19.5985 108.715 20.4949L107.518 24.1795H105.727L103.169 15.6943H105.155L106.139 19.7281C106.376 20.6821 106.572 21.5911 106.729 22.4515H106.764C106.908 21.7423 107.146 20.8387 107.481 19.7461L108.715 15.6961H110.29L111.473 19.6597C111.759 20.6263 111.991 21.5569 112.17 22.4533H112.223C112.354 21.5803 112.552 20.6497 112.814 19.6597L113.869 15.6961H115.767V15.6943Z" fill="#FAF8ED"/>
<path d="M125.787 24.179H123.854V19.319C123.854 17.8214 123.272 17.0726 122.102 17.0726C121.529 17.0726 121.066 17.2778 120.706 17.69C120.35 18.1022 120.169 18.5882 120.169 19.1444V24.1772H118.236V18.1184C118.236 17.3732 118.212 16.565 118.166 15.6902H119.865L119.955 17.0168H120.009C120.234 16.6046 120.57 16.2644 121.01 15.9926C121.534 15.6758 122.121 15.5156 122.763 15.5156C123.574 15.5156 124.249 15.7712 124.786 16.2842C125.454 16.9124 125.787 17.8502 125.787 19.0958V24.179V24.179Z" fill="#FAF8ED"/>
<path d="M131.118 24.1794H129.187V11.8008H131.118V24.1794Z" fill="#FAF8ED"/>
<path d="M142.498 19.8667C142.498 21.1717 142.116 22.2409 141.353 23.0797C140.552 23.9419 139.49 24.3721 138.167 24.3721C136.889 24.3721 135.873 23.9599 135.117 23.1319C134.36 22.3057 133.982 21.2635 133.982 20.0071C133.982 18.6931 134.371 17.6149 135.154 16.7779C135.936 15.9409 136.987 15.5215 138.309 15.5215C139.588 15.5215 140.611 15.9337 141.39 16.7599C142.127 17.5627 142.498 18.5995 142.498 19.8667ZM140.491 19.9279C140.491 19.1449 140.318 18.4735 139.973 17.9137C139.569 17.2369 138.99 16.8985 138.241 16.8985C137.463 16.8985 136.873 17.2369 136.469 17.9137C136.122 18.4735 135.95 19.1557 135.95 19.9621C135.95 20.7451 136.124 21.4165 136.469 21.9763C136.887 22.6531 137.47 22.9915 138.223 22.9915C138.96 22.9915 139.538 22.6477 139.955 21.9583C140.314 21.3877 140.491 20.7109 140.491 19.9279Z" fill="#FAF8ED"/>
<path d="M151.853 24.1795H150.118L149.974 23.2021H149.92C149.326 23.9815 148.48 24.3721 147.38 24.3721C146.56 24.3721 145.896 24.1147 145.396 23.6035C144.942 23.1391 144.715 22.5613 144.715 21.8755C144.715 20.8387 145.158 20.0485 146.049 19.5013C146.938 18.9541 148.188 18.6859 149.798 18.6985V18.5401C149.798 17.4223 149.197 16.8643 147.993 16.8643C147.135 16.8643 146.379 17.0749 145.726 17.4925L145.333 16.2541C146.141 15.7663 147.139 15.5215 148.316 15.5215C150.588 15.5215 151.728 16.6915 151.728 19.0315V22.1563C151.728 23.0041 151.77 23.6791 151.853 24.1795ZM149.846 21.2635V19.9549C147.714 19.9189 146.648 20.4895 146.648 21.6649C146.648 22.1077 146.77 22.4389 147.019 22.6603C147.268 22.8817 147.585 22.9915 147.963 22.9915C148.387 22.9915 148.784 22.8601 149.145 22.5991C149.509 22.3363 149.732 22.0033 149.815 21.5947C149.835 21.5029 149.846 21.3913 149.846 21.2635Z" fill="#FAF8ED"/>
<path d="M162.837 24.1794H161.122L161.031 22.8168H160.978C160.43 23.8536 159.497 24.372 158.185 24.372C157.138 24.372 156.265 23.9706 155.573 23.1678C154.882 22.365 154.537 21.3228 154.537 20.043C154.537 18.6696 154.911 17.5572 155.664 16.7076C156.392 15.9156 157.285 15.5196 158.347 15.5196C159.515 15.5196 160.332 15.903 160.797 16.6716H160.834V11.8008H162.769V21.8934C162.769 22.7196 162.791 23.481 162.837 24.1794ZM160.834 20.601V19.1862C160.834 18.9414 160.815 18.7434 160.78 18.5922C160.671 18.1386 160.437 17.757 160.081 17.4492C159.722 17.1414 159.288 16.9866 158.788 16.9866C158.067 16.9866 157.503 17.2656 157.088 17.8254C156.676 18.3852 156.468 19.0998 156.468 19.9728C156.468 20.8116 156.665 21.492 157.062 22.0158C157.481 22.5738 158.045 22.8528 158.751 22.8528C159.386 22.8528 159.893 22.6206 160.279 22.1544C160.651 21.7242 160.834 21.2058 160.834 20.601Z" fill="#FAF8ED"/>
<path d="M179.369 19.8667C179.369 21.1717 178.987 22.2409 178.223 23.0797C177.423 23.9419 176.364 24.3721 175.038 24.3721C173.763 24.3721 172.747 23.9599 171.987 23.1319C171.231 22.3057 170.853 21.2635 170.853 20.0071C170.853 18.6931 171.242 17.6149 172.024 16.7779C172.806 15.9409 173.857 15.5215 175.184 15.5215C176.458 15.5215 177.485 15.9337 178.26 16.7599C178.998 17.5627 179.369 18.5995 179.369 19.8667ZM177.366 19.9279C177.366 19.1449 177.192 18.4735 176.847 17.9137C176.44 17.2369 175.864 16.8985 175.112 16.8985C174.337 16.8985 173.747 17.2369 173.339 17.9137C172.992 18.4735 172.821 19.1557 172.821 19.9621C172.821 20.7451 172.994 21.4165 173.339 21.9763C173.758 22.6531 174.341 22.9915 175.093 22.9915C175.831 22.9915 176.412 22.6477 176.829 21.9583C177.185 21.3877 177.366 20.7109 177.366 19.9279Z" fill="#FAF8ED"/>
<path d="M189.762 24.179H187.831V19.319C187.831 17.8214 187.248 17.0726 186.077 17.0726C185.503 17.0726 185.04 17.2778 184.682 17.69C184.325 18.1022 184.146 18.5882 184.146 19.1444V24.1772H182.211V18.1184C182.211 17.3732 182.189 16.565 182.143 15.6902H183.84L183.93 17.0168H183.983C184.21 16.6046 184.546 16.2644 184.985 15.9926C185.511 15.6758 186.095 15.5156 186.739 15.5156C187.549 15.5156 188.224 15.7712 188.76 16.2842C189.43 16.9124 189.762 17.8502 189.762 19.0958V24.179V24.179Z" fill="#FAF8ED"/>
<path d="M202.771 17.1073H200.642V21.2293C200.642 22.2769 201.021 22.8007 201.769 22.8007C202.116 22.8007 202.404 22.7719 202.631 22.7125L202.681 24.1435C202.299 24.2839 201.797 24.3541 201.179 24.3541C200.416 24.3541 199.822 24.1273 199.392 23.6737C198.96 23.2201 198.746 22.4569 198.746 21.3859V17.1073H197.476V15.6943H198.746V14.1391L200.641 13.5811V15.6925H202.769V17.1073H202.771Z" fill="#FAF8ED"/>
<path d="M213.004 24.1794H211.069V19.3554C211.069 17.8344 210.486 17.073 209.319 17.073C208.422 17.073 207.81 17.514 207.474 18.396C207.417 18.5814 207.384 18.8082 207.384 19.0746V24.1776H205.453V11.8008H207.384V16.9146H207.421C208.029 15.984 208.902 15.5196 210.032 15.5196C210.833 15.5196 211.495 15.7752 212.021 16.2882C212.676 16.9272 213.004 17.8776 213.004 19.134V24.1794V24.1794Z" fill="#FAF8ED"/>
<path d="M223.56 19.5351C223.56 19.8735 223.534 20.1579 223.488 20.3901H217.691C217.716 21.2289 217.993 21.8679 218.53 22.3107C219.02 22.7067 219.653 22.9047 220.428 22.9047C221.285 22.9047 222.067 22.7715 222.772 22.5033L223.075 23.8137C222.25 24.1629 221.28 24.3375 220.157 24.3375C218.81 24.3375 217.75 23.9505 216.982 23.1765C216.211 22.4025 215.83 21.3639 215.83 20.0607C215.83 18.7809 216.186 17.7153 216.903 16.8657C217.652 15.9585 218.664 15.5049 219.943 15.5049C221.193 15.5049 222.143 15.9585 222.785 16.8657C223.303 17.5857 223.56 18.4767 223.56 19.5351ZM221.715 19.0473C221.73 18.4875 221.603 18.0051 221.341 17.5983C221.005 17.0745 220.494 16.8117 219.802 16.8117C219.172 16.8117 218.657 17.0673 218.264 17.5803C217.943 17.9889 217.753 18.4767 217.691 19.0473H221.715Z" fill="#FAF8ED"/>
<path d="M98.9452 56.7064H94.7565L92.462 49.6702H84.4866L82.301 56.7064H78.2229L86.1245 32.752H91.0049L98.9452 56.7064ZM91.7703 46.7182L89.6953 40.4632C89.4759 39.8242 89.0645 38.3194 88.4577 35.9506H88.3839C88.1423 36.9694 87.7531 38.4742 87.2183 40.4632L85.1801 46.7182H91.7703V46.7182Z" fill="#FAF8ED"/>
<path d="M119.265 47.8577C119.265 50.7953 118.452 53.1173 116.825 54.8219C115.368 56.3393 113.559 57.0971 111.399 57.0971C109.068 57.0971 107.393 56.2799 106.373 54.6455H106.299V63.7445H102.367V45.1199C102.367 43.2731 102.317 41.3777 102.221 39.4337H105.679L105.899 42.1715H105.973C107.284 40.1087 109.274 39.0791 111.945 39.0791C114.033 39.0791 115.776 39.8837 117.17 41.4947C118.568 43.1075 119.265 45.2279 119.265 47.8577ZM115.259 47.9981C115.259 46.3169 114.872 44.9309 114.094 43.8401C113.243 42.7025 112.102 42.1337 110.67 42.1337C109.7 42.1337 108.819 42.4505 108.031 43.0751C107.242 43.7051 106.725 44.5277 106.483 45.5465C106.362 46.0217 106.301 46.4105 106.301 46.7165V49.5965C106.301 50.8529 106.696 51.9131 107.485 52.7789C108.274 53.6447 109.3 54.0767 110.562 54.0767C112.043 54.0767 113.195 53.5187 114.02 52.4063C114.846 51.2921 115.259 49.8233 115.259 47.9981Z" fill="#FAF8ED"/>
<path d="M139.623 47.8577C139.623 50.7953 138.809 53.1173 137.181 54.8219C135.725 56.3393 133.916 57.0971 131.756 57.0971C129.425 57.0971 127.75 56.2799 126.732 54.6455H126.658V63.7445H122.726V45.1199C122.726 43.2731 122.676 41.3777 122.58 39.4337H126.038L126.258 42.1715H126.332C127.641 40.1087 129.631 39.0791 132.304 39.0791C134.39 39.0791 136.133 39.8837 137.531 41.4947C138.924 43.1075 139.623 45.2279 139.623 47.8577ZM135.616 47.9981C135.616 46.3169 135.227 44.9309 134.449 43.8401C133.599 42.7025 132.461 42.1337 131.028 42.1337C130.055 42.1337 129.176 42.4505 128.386 43.0751C127.597 43.7051 127.082 44.5277 126.841 45.5465C126.721 46.0217 126.658 46.4105 126.658 46.7165V49.5965C126.658 50.8529 127.053 51.9131 127.838 52.7789C128.628 53.6429 129.653 54.0767 130.919 54.0767C132.4 54.0767 133.553 53.5187 134.377 52.4063C135.203 51.2921 135.616 49.8233 135.616 47.9981Z" fill="#FAF8ED"/>
<path d="M162.383 49.9892C162.383 52.0268 161.658 53.6846 160.203 54.9644C158.604 56.363 156.378 57.0614 153.517 57.0614C150.876 57.0614 148.758 56.5646 147.155 55.5692L148.066 52.3706C149.793 53.3894 151.687 53.9006 153.751 53.9006C155.232 53.9006 156.385 53.573 157.213 52.9214C158.038 52.2698 158.449 51.395 158.449 50.3042C158.449 49.3322 158.109 48.5132 157.429 47.849C156.752 47.1848 155.621 46.5674 154.042 45.9968C149.745 44.4326 147.598 42.1412 147.598 39.128C147.598 37.1588 148.351 35.5442 149.857 34.2878C151.359 33.0296 153.362 32.4014 155.867 32.4014C158.1 32.4014 159.956 32.7812 161.437 33.539L160.454 36.6674C159.07 35.933 157.506 35.5658 155.756 35.5658C154.373 35.5658 153.292 35.8988 152.517 36.5612C151.862 37.1534 151.534 37.8752 151.534 38.7302C151.534 39.677 151.908 40.46 152.661 41.0756C153.316 41.6444 154.505 42.26 156.232 42.9242C158.344 43.754 159.895 44.7242 160.893 45.8366C161.887 46.9454 162.383 48.3332 162.383 49.9892Z" fill="#FAF8ED"/>
<path d="M175.385 42.3137H171.05V50.6999C171.05 52.8329 171.814 53.8985 173.345 53.8985C174.047 53.8985 174.63 53.8391 175.091 53.7203L175.2 56.6345C174.425 56.9171 173.405 57.0593 172.142 57.0593C170.589 57.0593 169.375 56.5967 168.499 55.6733C167.627 54.7481 167.188 53.1965 167.188 51.0167V42.3101H164.606V39.4301H167.188V36.2675L171.05 35.1299V39.4301H175.385V42.3137Z" fill="#FAF8ED"/>
<path d="M194.941 47.9281C194.941 50.5831 194.163 52.7629 192.61 54.4675C190.981 56.2225 188.819 57.0973 186.125 57.0973C183.528 57.0973 181.46 56.2567 179.918 54.5755C178.376 52.8943 177.605 50.7721 177.605 48.2143C177.605 45.5377 178.398 43.3453 179.99 41.6407C181.578 39.9343 183.721 39.0811 186.416 39.0811C189.013 39.0811 191.103 39.9217 192.68 41.6047C194.189 43.2373 194.941 45.3451 194.941 47.9281ZM190.861 48.0523C190.861 46.4593 190.513 45.0931 189.806 43.9537C188.982 42.5749 187.803 41.8873 186.276 41.8873C184.695 41.8873 183.495 42.5767 182.67 43.9537C181.964 45.0949 181.615 46.4827 181.615 48.1243C181.615 49.7173 181.964 51.0835 182.67 52.2211C183.52 53.5999 184.708 54.2875 186.241 54.2875C187.742 54.2875 188.921 53.5855 189.771 52.1851C190.496 51.0241 190.861 49.6435 190.861 48.0523Z" fill="#FAF8ED"/>
<path d="M207.723 42.8087C207.334 42.7385 206.919 42.7025 206.484 42.7025C205.1 42.7025 204.031 43.2119 203.278 44.2325C202.623 45.1325 202.295 46.2701 202.295 47.6435V56.7065H198.364L198.401 44.8733C198.401 42.8825 198.352 41.0699 198.254 39.4355H201.679L201.823 42.7403H201.932C202.347 41.6045 203.001 40.6901 203.898 40.0043C204.774 39.3869 205.72 39.0791 206.74 39.0791C207.103 39.0791 207.432 39.1043 207.723 39.1493V42.8087Z" fill="#FAF8ED"/>
<path d="M225.31 47.2531C225.31 47.9407 225.264 48.5203 225.166 48.9937H213.369C213.415 50.7001 213.985 52.0051 215.081 52.9051C216.075 53.7097 217.36 54.1129 218.939 54.1129C220.686 54.1129 222.28 53.8411 223.713 53.2957L224.329 55.9597C222.654 56.6725 220.677 57.0271 218.395 57.0271C215.651 57.0271 213.496 56.2387 211.929 54.6637C210.364 53.0887 209.581 50.9737 209.581 48.3205C209.581 45.7159 210.309 43.5469 211.768 41.8171C213.295 39.9703 215.359 39.0469 217.956 39.0469C220.507 39.0469 222.438 39.9703 223.75 41.8171C224.788 43.2841 225.31 45.0985 225.31 47.2531ZM221.56 46.2577C221.586 45.1201 221.33 44.1373 220.797 43.3075C220.116 42.2401 219.07 41.7073 217.663 41.7073C216.377 41.7073 215.332 42.2275 214.533 43.2715C213.878 44.1013 213.489 45.0967 213.369 46.2559H221.56V46.2577Z" fill="#FAF8ED"/>
</svg>
