<svg width="160" height="46" viewBox="0 0 160 46" fill="none" xmlns="http://www.w3.org/2000/svg">
<path d="M154.074 0.921437C156.818 0.921437 159.05 3.08775 159.05 5.75V40.25C159.05 42.9123 156.818 45.0786 154.074 45.0786H5.92593C3.18222 45.0786 0.949629 42.9123 0.949629 40.25V5.75C0.949629 3.08775 3.18222 0.921437 5.92593 0.921437H154.074ZM154.074 9.53674e-07H5.92593C2.66815 9.53674e-07 0 2.58894 0 5.75V40.25C0 43.4111 2.66815 46 5.92593 46H154.074C157.332 46 160 43.4111 160 40.25V5.75C160 2.58894 157.332 9.53674e-07 154.074 9.53674e-07Z" fill="#0D1323"/>
<path d="M11.4786 8.66981C11.1304 9.02343 10.929 9.574 10.929 10.287V35.7192C10.929 36.4322 11.1304 36.9828 11.4786 37.3364L11.5645 37.4141L26.2519 23.1684V22.8321L11.5645 8.58644L11.4786 8.66981Z" fill="#0D1323"/>
<path d="M32.92 27.9199L28.0296 23.169V22.8326L32.9259 18.0817L33.0355 18.1435L38.834 21.3448C40.4889 22.2533 40.4889 23.7483 38.834 24.6625L33.0355 27.8581L32.92 27.9199V27.9199Z" fill="#0D1323"/>
<path d="M32.1467 28.7421L27.1408 23.8848L12.3674 38.221C12.9171 38.7816 13.8134 38.8492 14.8326 38.2885L32.1467 28.7421" fill="#0D1323"/>
<path d="M32.1467 17.2579L14.8326 7.71149C13.8134 7.15661 12.9171 7.22417 12.3674 7.7848L27.1408 22.1152L32.1467 17.2579Z" fill="#0D1323"/>
<path d="M56.1985 11.7801C56.1985 12.7403 55.9022 13.5094 55.3185 14.083C54.6474 14.7629 53.7733 15.105 52.7022 15.105C51.6785 15.105 50.8044 14.7572 50.0874 14.0715C49.3689 13.3757 49.0104 12.5218 49.0104 11.4998C49.0104 10.4777 49.3689 9.62384 50.0874 8.93384C50.8044 8.24241 51.6785 7.89453 52.7022 7.89453C53.2119 7.89453 53.6978 7.99659 54.1615 8.18634C54.6237 8.37753 55 8.63628 55.2726 8.95541L54.6533 9.56203C54.1778 9.01722 53.5304 8.74841 52.7022 8.74841C51.9556 8.74841 51.3082 9.00141 50.7585 9.51172C50.2148 10.0235 49.9422 10.6862 49.9422 11.4998C49.9422 12.3134 50.2148 12.9818 50.7585 13.4936C51.3082 13.9982 51.9556 14.2569 52.7022 14.2569C53.4948 14.2569 54.1615 13.9982 54.6874 13.4878C55.0341 13.15 55.2311 12.6843 55.283 12.0892H52.7022V11.2583H56.1452C56.1867 11.438 56.1985 11.6119 56.1985 11.7801V11.7801Z" fill="#0D1323" stroke="#0D1323" stroke-width="0.16" stroke-miterlimit="10"/>
<path d="M61.6607 8.89942H58.4267V11.0844H61.3422V11.9153H58.4267V14.1003H61.6607V14.947H57.5111V8.05273H61.6607V8.89942Z" fill="#0D1323" stroke="#0D1323" stroke-width="0.16" stroke-miterlimit="10"/>
<path d="M65.5155 14.947H64.6V8.89942H62.6163V8.05273H67.5007V8.89942H65.5155V14.947V14.947Z" fill="#0D1323" stroke="#0D1323" stroke-width="0.16" stroke-miterlimit="10"/>
<path d="M71.0356 14.947V8.05273H71.9497V14.947H71.0356Z" fill="#0D1323" stroke="#0D1323" stroke-width="0.16" stroke-miterlimit="10"/>
<path d="M76.0014 14.947H75.0933V8.89942H73.1022V8.05273H77.9925V8.89942H76.0014V14.947Z" fill="#0D1323" stroke="#0D1323" stroke-width="0.16" stroke-miterlimit="10"/>
<path d="M87.24 14.06C86.5393 14.7572 85.6711 15.105 84.6356 15.105C83.5941 15.105 82.7259 14.7572 82.0252 14.06C81.3259 13.3642 80.9778 12.5103 80.9778 11.4998C80.9778 10.4892 81.3259 9.63534 82.0252 8.93959C82.7259 8.24241 83.5941 7.89453 84.6356 7.89453C85.6652 7.89453 86.5333 8.24241 87.2341 8.94534C87.9393 9.64684 88.2874 10.495 88.2874 11.4998C88.2874 12.5103 87.9393 13.3642 87.24 14.06ZM82.7022 13.4821C83.2296 13.9982 83.8711 14.2569 84.6356 14.2569C85.3941 14.2569 86.0415 13.9982 86.563 13.4821C87.0889 12.966 87.3556 12.3033 87.3556 11.4998C87.3556 10.6962 87.0889 10.0335 86.563 9.51747C86.0415 9.00141 85.3941 8.74266 84.6356 8.74266C83.8711 8.74266 83.2296 9.00141 82.7022 9.51747C82.1763 10.0335 81.9096 10.6962 81.9096 11.4998C81.9096 12.3033 82.1763 12.966 82.7022 13.4821V13.4821Z" fill="#0D1323" stroke="#0D1323" stroke-width="0.16" stroke-miterlimit="10"/>
<path d="M89.5718 14.947V8.05273H90.6829L94.1378 13.4146H94.1778L94.1378 12.0892V8.05273H95.0518V14.947H94.0978L90.48 9.32061H90.44L90.48 10.6517V14.947H89.5718V14.947Z" fill="#0D1323" stroke="#0D1323" stroke-width="0.16" stroke-miterlimit="10"/>
<path d="M80.7526 25.0157C77.9689 25.0157 75.6948 27.0713 75.6948 29.9075C75.6948 32.7207 77.9689 34.7979 80.7526 34.7979C83.5422 34.7979 85.8163 32.7207 85.8163 29.9075C85.8163 27.0713 83.5422 25.0157 80.7526 25.0157ZM80.7526 32.8716C79.2252 32.8716 77.9111 31.6483 77.9111 29.9075C77.9111 28.1437 79.2252 26.942 80.7526 26.942C82.28 26.942 83.6 28.1437 83.6 29.9075C83.6 31.6483 82.28 32.8716 80.7526 32.8716V32.8716ZM69.717 25.0157C66.9274 25.0157 64.6593 27.0713 64.6593 29.9075C64.6593 32.7207 66.9274 34.7979 69.717 34.7979C72.5052 34.7979 74.7748 32.7207 74.7748 29.9075C74.7748 27.0713 72.5052 25.0157 69.717 25.0157ZM69.717 32.8716C68.1882 32.8716 66.8696 31.6483 66.8696 29.9075C66.8696 28.1437 68.1882 26.942 69.717 26.942C71.2444 26.942 72.5585 28.1437 72.5585 29.9075C72.5585 31.6483 71.2444 32.8716 69.717 32.8716ZM56.5852 26.515V28.5936H61.7007C61.5511 29.7551 61.1511 30.609 60.5378 31.2041C59.7911 31.9229 58.6282 32.7207 56.5852 32.7207C53.437 32.7207 50.9719 30.2554 50.9719 27.2007C50.9719 24.146 53.437 21.6807 56.5852 21.6807C58.2874 21.6807 59.5259 22.3261 60.44 23.1628L61.9496 21.698C60.6711 20.5135 58.9704 19.6035 56.5852 19.6035C52.2682 19.6035 48.64 23.0118 48.64 27.2007C48.64 31.3896 52.2682 34.7979 56.5852 34.7979C58.9185 34.7979 60.6711 34.0561 62.0489 32.6646C63.4607 31.2947 63.9007 29.3685 63.9007 27.8131C63.9007 27.3301 63.8593 26.8859 63.7852 26.515H56.5852ZM110.283 28.1265C109.867 27.0325 108.582 25.0157 105.966 25.0157C103.373 25.0157 101.215 26.998 101.215 29.9075C101.215 32.6474 103.351 34.7979 106.215 34.7979C108.53 34.7979 109.867 33.428 110.416 32.6301L108.698 31.519C108.124 32.3326 107.344 32.8716 106.215 32.8716C105.093 32.8716 104.289 32.3728 103.773 31.3896L110.516 28.6828L110.283 28.1265V28.1265ZM103.409 29.7551C103.351 27.8691 104.919 26.9031 106.041 26.9031C106.921 26.9031 107.668 27.3301 107.917 27.941L103.409 29.7551V29.7551ZM97.9289 34.5003H100.145V20.1253H97.9289V34.5003ZM94.2993 26.1053H94.2252C93.7274 25.5332 92.7778 25.0157 91.5748 25.0157C89.0504 25.0157 86.7422 27.1662 86.7422 29.9233C86.7422 32.6646 89.0504 34.7979 91.5748 34.7979C92.7778 34.7979 93.7274 34.2761 94.2252 33.6867H94.2993V34.3882C94.2993 36.2584 93.2696 37.2632 91.6089 37.2632C90.2548 37.2632 89.4148 36.3145 89.0681 35.5166L87.1407 36.2972C87.6963 37.5938 89.1674 39.1895 91.6089 39.1895C94.2074 39.1895 96.4 37.706 96.4 34.0964V25.3133H94.2993V26.1053V26.1053ZM91.7644 32.8716C90.237 32.8716 88.9585 31.6311 88.9585 29.9233C88.9585 28.1998 90.237 26.942 91.7644 26.942C93.2696 26.942 94.4563 28.1998 94.4563 29.9233C94.4563 31.6311 93.2696 32.8716 91.7644 32.8716V32.8716ZM120.659 20.1253H115.359V34.5003H117.569V29.0536H120.659C123.114 29.0536 125.521 27.3301 125.521 24.5888C125.521 21.8489 123.108 20.1253 120.659 20.1253V20.1253ZM120.717 27.0541H117.569V22.1249H120.717C122.367 22.1249 123.31 23.4546 123.31 24.5888C123.31 25.7014 122.367 27.0541 120.717 27.0541ZM134.381 24.9884C132.784 24.9884 131.123 25.6726 130.44 27.1892L132.401 27.987C132.824 27.1892 133.6 26.9305 134.421 26.9305C135.567 26.9305 136.73 27.5989 136.748 28.7791V28.93C136.348 28.7058 135.492 28.3737 134.439 28.3737C132.326 28.3737 130.173 29.5021 130.173 31.6081C130.173 33.5343 131.904 34.7749 133.849 34.7749C135.336 34.7749 136.157 34.1237 136.673 33.3661H136.748V34.4773H138.883V28.9631C138.883 26.4144 136.921 24.9884 134.381 24.9884ZM134.114 32.8659C133.391 32.8659 132.384 32.518 132.384 31.6483C132.384 30.5357 133.64 30.1088 134.727 30.1088C135.701 30.1088 136.157 30.3172 136.748 30.5918C136.575 31.9229 135.394 32.8659 134.114 32.8659V32.8659ZM146.661 25.3032L144.12 31.5348H144.044L141.418 25.3032H139.034L142.981 34.0116L140.729 38.8574H143.038L149.12 25.3032H146.661V25.3032ZM126.736 34.5003H128.953V20.1253H126.736V34.5003Z" fill="#0D1323"/>
</svg>
