<svg width="248" height="135" viewBox="0 0 248 135" fill="none" xmlns="http://www.w3.org/2000/svg">
<g clip-path="url(#clip0_576_2732)">
<path d="M240.263 88.6895L193.34 102.34L194.583 106.6L241.506 92.9488L240.263 88.6895Z" fill="#FAF8ED"/>
<path d="M198.944 121.905L192.028 98.2034C191.976 98.0277 191.997 97.8388 192.085 97.6784C192.173 97.5179 192.322 97.399 192.498 97.3478L238.283 84.0279C238.459 83.9769 238.648 83.9976 238.809 84.0857C238.97 84.1737 239.089 84.3218 239.14 84.4974L245.267 105.495L245.078 105.55L238.951 84.5525C238.914 84.4272 238.829 84.3215 238.714 84.2586C238.599 84.1957 238.464 84.1808 238.339 84.2172L192.553 97.5371C192.427 97.5737 192.321 97.6586 192.258 97.7732C192.195 97.8878 192.181 98.0227 192.217 98.1483L199.133 121.85L198.944 121.905Z" fill="#FAF8ED"/>
<path d="M235.134 105.593C234.995 105.593 234.86 105.548 234.749 105.464C234.638 105.381 234.556 105.264 234.517 105.131L233.357 101.156C233.31 100.993 233.329 100.817 233.411 100.668C233.493 100.52 233.631 100.409 233.794 100.361L237.775 99.2031C237.939 99.1558 238.114 99.1751 238.264 99.2569C238.413 99.3386 238.523 99.4761 238.571 99.6392L239.731 103.615C239.779 103.778 239.759 103.953 239.677 104.102C239.595 104.251 239.458 104.361 239.295 104.409L235.313 105.567C235.255 105.584 235.195 105.593 235.134 105.593Z" fill="#7E90B9"/>
<path d="M198.838 98.2765C198.826 98.2356 198.812 98.1955 198.796 98.1562C198.685 97.8864 198.477 97.6672 198.214 97.5407C197.951 97.4143 197.65 97.3894 197.369 97.471C197.089 97.5526 196.848 97.7348 196.694 97.9826C196.54 98.2305 196.483 98.5265 196.534 98.8138C196.541 98.8557 196.551 98.8971 196.563 98.938C196.635 99.1837 196.785 99.3995 196.99 99.5531C197.195 99.7066 197.444 99.7897 197.701 99.7898C197.813 99.79 197.924 99.7741 198.032 99.7424C198.333 99.6545 198.587 99.4508 198.739 99.176C198.89 98.9011 198.926 98.5777 198.838 98.2765ZM197.976 99.5532C197.725 99.626 197.455 99.5963 197.225 99.4707C196.996 99.345 196.826 99.1336 196.752 98.8828C196.741 98.8419 196.731 98.8004 196.724 98.7585C196.687 98.5219 196.738 98.2798 196.867 98.0776C196.995 97.8755 197.193 97.727 197.424 97.6601C197.654 97.5932 197.901 97.6123 198.118 97.714C198.336 97.8156 198.508 97.9928 198.604 98.2124C198.622 98.2509 198.637 98.2908 198.649 98.3317C198.722 98.5827 198.692 98.8523 198.566 99.0813C198.44 99.3103 198.228 99.48 197.976 99.5532Z" fill="#7E90B9"/>
<path d="M195.93 99.1216C195.867 98.9049 195.873 98.674 195.948 98.4609C196.022 98.2478 196.161 98.0633 196.346 97.9329C196.173 97.9245 196.001 97.9575 195.843 98.029C195.686 98.1006 195.548 98.2087 195.44 98.3444C195.333 98.48 195.26 98.6393 195.227 98.8089C195.194 98.9785 195.202 99.1536 195.25 99.3195C195.299 99.4853 195.386 99.6373 195.505 99.7626C195.624 99.888 195.772 99.9831 195.935 100.04C196.099 100.097 196.273 100.114 196.445 100.09C196.616 100.066 196.779 100.001 196.92 99.9014C196.695 99.8904 196.478 99.8094 196.301 99.6696C196.123 99.5298 195.994 99.3383 195.93 99.1216Z" fill="#7E90B9"/>
<path d="M226.625 104.007C226.604 103.932 226.569 103.861 226.52 103.8C226.472 103.738 226.412 103.687 226.344 103.648C226.275 103.61 226.2 103.585 226.122 103.576C226.044 103.566 225.965 103.572 225.89 103.593L219.335 105.424L218.629 105.621H223.062L223.768 105.424L226.212 104.742C226.364 104.699 226.493 104.598 226.571 104.46C226.648 104.322 226.668 104.16 226.625 104.007Z" fill="#CCCCCC"/>
<path d="M221.988 102.64C221.945 102.488 221.844 102.359 221.706 102.281C221.568 102.204 221.405 102.184 221.252 102.227L211.416 104.974C211.279 105.012 211.16 105.099 211.081 105.218C211.002 105.337 210.968 105.48 210.985 105.621H213.531L214.238 105.424L221.574 103.375C221.727 103.333 221.856 103.231 221.933 103.093C222.011 102.955 222.031 102.792 221.988 102.64Z" fill="#CCCCCC"/>
<path d="M247.31 105.424H199.621C199.438 105.424 199.262 105.497 199.132 105.626C199.003 105.756 198.93 105.931 198.93 106.114V134.31C198.93 134.493 199.003 134.668 199.132 134.798C199.262 134.927 199.438 135 199.621 135H247.31C247.493 135 247.669 134.927 247.799 134.798C247.928 134.668 248.001 134.493 248.001 134.31V106.114C248.001 105.931 247.928 105.756 247.799 105.626C247.669 105.497 247.493 105.424 247.31 105.424ZM247.804 134.31C247.804 134.441 247.752 134.566 247.659 134.658C247.567 134.751 247.441 134.803 247.31 134.803H199.621C199.49 134.803 199.364 134.751 199.272 134.658C199.179 134.566 199.127 134.441 199.127 134.31V106.114C199.127 105.983 199.179 105.858 199.272 105.765C199.364 105.673 199.49 105.621 199.621 105.621H247.31C247.441 105.621 247.567 105.673 247.659 105.765C247.752 105.858 247.804 105.983 247.804 106.114V134.31Z" fill="#FAF8ED"/>
<path d="M204.259 109.269C204.025 109.269 203.796 109.2 203.601 109.07C203.406 108.94 203.254 108.755 203.164 108.539C203.075 108.322 203.051 108.085 203.097 107.855C203.143 107.626 203.256 107.415 203.421 107.249C203.587 107.084 203.798 106.971 204.028 106.926C204.258 106.88 204.496 106.903 204.712 106.993C204.929 107.082 205.114 107.234 205.244 107.429C205.374 107.623 205.444 107.852 205.444 108.086C205.444 108.4 205.319 108.7 205.096 108.922C204.874 109.144 204.573 109.269 204.259 109.269ZM204.259 107.1C204.064 107.1 203.873 107.158 203.711 107.266C203.548 107.374 203.422 107.528 203.347 107.709C203.272 107.889 203.253 108.087 203.291 108.278C203.329 108.469 203.423 108.645 203.561 108.783C203.699 108.921 203.875 109.015 204.066 109.053C204.258 109.091 204.456 109.071 204.637 108.997C204.817 108.922 204.972 108.796 205.08 108.634C205.188 108.471 205.246 108.281 205.246 108.086C205.246 107.824 205.142 107.574 204.957 107.389C204.772 107.204 204.521 107.1 204.259 107.1Z" fill="#7E90B9"/>
<path d="M202.419 108.086C202.419 107.86 202.49 107.64 202.621 107.456C202.752 107.273 202.938 107.134 203.151 107.061C202.988 107.004 202.813 106.988 202.642 107.013C202.47 107.037 202.308 107.103 202.167 107.203C202.026 107.303 201.911 107.436 201.832 107.589C201.752 107.743 201.711 107.913 201.711 108.086C201.711 108.259 201.752 108.429 201.832 108.583C201.911 108.736 202.026 108.869 202.167 108.969C202.308 109.069 202.47 109.135 202.642 109.159C202.813 109.184 202.988 109.167 203.151 109.111C202.938 109.037 202.752 108.899 202.621 108.715C202.49 108.532 202.419 108.312 202.419 108.086Z" fill="#7E90B9"/>
<path d="M209.064 122.063C208.829 122.063 208.603 121.97 208.436 121.803C208.27 121.637 208.176 121.411 208.176 121.176V118.514C208.176 118.279 208.269 118.053 208.436 117.887C208.603 117.72 208.829 117.627 209.064 117.627C209.3 117.627 209.526 117.72 209.693 117.887C209.859 118.053 209.953 118.279 209.953 118.514V121.176C209.953 121.411 209.859 121.637 209.692 121.803C209.526 121.97 209.3 122.063 209.064 122.063Z" fill="#7E90B9"/>
<path d="M211.432 122.063C211.196 122.063 210.97 121.97 210.804 121.803C210.637 121.637 210.543 121.411 210.543 121.176V118.514C210.543 118.279 210.637 118.053 210.803 117.887C210.97 117.72 211.196 117.627 211.432 117.627C211.667 117.627 211.893 117.72 212.06 117.887C212.227 118.053 212.32 118.279 212.32 118.514V121.176C212.32 121.411 212.226 121.637 212.06 121.803C211.893 121.97 211.667 122.063 211.432 122.063Z" fill="#7E90B9"/>
<path d="M213.803 122.063C213.567 122.063 213.341 121.97 213.175 121.803C213.008 121.637 212.914 121.411 212.914 121.176V118.514C212.914 118.279 213.008 118.053 213.174 117.887C213.341 117.72 213.567 117.627 213.803 117.627C214.038 117.627 214.264 117.72 214.431 117.887C214.598 118.053 214.691 118.279 214.691 118.514V121.176C214.691 121.411 214.597 121.637 214.431 121.803C214.264 121.97 214.038 122.063 213.803 122.063Z" fill="#7E90B9"/>
<path d="M217.455 122.063C217.219 122.063 216.994 121.97 216.827 121.803C216.66 121.637 216.567 121.411 216.566 121.176V118.514C216.566 118.279 216.66 118.053 216.827 117.887C216.993 117.72 217.219 117.627 217.455 117.627C217.691 117.627 217.917 117.72 218.083 117.887C218.25 118.053 218.344 118.279 218.344 118.514V121.176C218.343 121.411 218.25 121.637 218.083 121.803C217.916 121.97 217.691 122.063 217.455 122.063Z" fill="#7E90B9"/>
<path d="M219.826 122.063C219.591 122.063 219.365 121.97 219.198 121.803C219.031 121.637 218.938 121.411 218.938 121.176V118.514C218.938 118.279 219.031 118.053 219.198 117.887C219.364 117.72 219.59 117.627 219.826 117.627C220.062 117.627 220.288 117.72 220.454 117.887C220.621 118.053 220.715 118.279 220.715 118.514V121.176C220.714 121.411 220.621 121.637 220.454 121.803C220.288 121.97 220.062 122.063 219.826 122.063Z" fill="#7E90B9"/>
<path d="M222.193 122.063C221.958 122.063 221.732 121.97 221.565 121.803C221.399 121.637 221.305 121.411 221.305 121.176V118.514C221.305 118.279 221.398 118.053 221.565 117.887C221.732 117.72 221.958 117.627 222.193 117.627C222.429 117.627 222.655 117.72 222.822 117.887C222.988 118.053 223.082 118.279 223.082 118.514V121.176C223.082 121.411 222.988 121.637 222.821 121.803C222.655 121.97 222.429 122.063 222.193 122.063Z" fill="#7E90B9"/>
<path d="M225.846 122.063C225.61 122.063 225.384 121.97 225.218 121.803C225.051 121.637 224.957 121.411 224.957 121.176V118.514C224.957 118.279 225.051 118.053 225.217 117.887C225.384 117.72 225.61 117.627 225.846 117.627C226.081 117.627 226.307 117.72 226.474 117.887C226.641 118.053 226.734 118.279 226.734 118.514V121.176C226.734 121.411 226.64 121.637 226.474 121.803C226.307 121.97 226.081 122.063 225.846 122.063Z" fill="#7E90B9"/>
<path d="M228.217 122.063C227.981 122.063 227.755 121.97 227.589 121.803C227.422 121.637 227.328 121.411 227.328 121.176V118.514C227.328 118.279 227.422 118.053 227.588 117.887C227.755 117.72 227.981 117.627 228.217 117.627C228.452 117.627 228.678 117.72 228.845 117.887C229.012 118.053 229.105 118.279 229.105 118.514V121.176C229.105 121.411 229.011 121.637 228.845 121.803C228.678 121.97 228.452 122.063 228.217 122.063Z" fill="#7E90B9"/>
<path d="M230.588 122.063C230.352 122.063 230.126 121.97 229.96 121.803C229.793 121.637 229.699 121.411 229.699 121.176V118.514C229.699 118.279 229.793 118.053 229.959 117.887C230.126 117.72 230.352 117.627 230.588 117.627C230.824 117.627 231.05 117.72 231.216 117.887C231.383 118.053 231.476 118.279 231.476 118.514V121.176C231.476 121.411 231.382 121.637 231.216 121.803C231.049 121.97 230.823 122.063 230.588 122.063Z" fill="#7E90B9"/>
<path d="M234.24 122.063C234.005 122.063 233.779 121.97 233.612 121.803C233.446 121.637 233.352 121.411 233.352 121.176V118.514C233.352 118.279 233.445 118.053 233.612 117.887C233.778 117.72 234.005 117.627 234.24 117.627C234.476 117.627 234.702 117.72 234.869 117.887C235.035 118.053 235.129 118.279 235.129 118.514V121.176C235.129 121.411 235.035 121.637 234.868 121.803C234.702 121.97 234.476 122.063 234.24 122.063Z" fill="#7E90B9"/>
<path d="M236.611 122.063C236.376 122.063 236.15 121.97 235.983 121.803C235.817 121.637 235.723 121.411 235.723 121.176V118.514C235.723 118.279 235.816 118.053 235.983 117.887C236.15 117.72 236.376 117.627 236.611 117.627C236.847 117.627 237.073 117.72 237.24 117.887C237.406 118.053 237.5 118.279 237.5 118.514V121.176C237.5 121.411 237.406 121.637 237.239 121.803C237.073 121.97 236.847 122.063 236.611 122.063Z" fill="#7E90B9"/>
<path d="M238.978 122.063C238.743 122.063 238.517 121.97 238.35 121.803C238.184 121.637 238.09 121.411 238.09 121.176V118.514C238.09 118.279 238.183 118.053 238.35 117.887C238.517 117.72 238.743 117.627 238.978 117.627C239.214 117.627 239.44 117.72 239.607 117.887C239.773 118.053 239.867 118.279 239.867 118.514V121.176C239.867 121.411 239.773 121.637 239.607 121.803C239.44 121.97 239.214 122.063 238.978 122.063Z" fill="#7E90B9"/>
<path d="M215.088 131.938H202.308C202.15 131.938 201.998 131.876 201.886 131.764C201.774 131.652 201.711 131.5 201.711 131.342C201.711 131.184 201.774 131.033 201.886 130.921C201.998 130.809 202.15 130.746 202.308 130.746H215.088C215.247 130.746 215.399 130.809 215.511 130.921C215.623 131.033 215.686 131.184 215.686 131.342C215.686 131.5 215.623 131.652 215.511 131.764C215.399 131.876 215.247 131.938 215.088 131.938Z" fill="#E6E6E6"/>
<path d="M210.991 129.375H206.406C206.247 129.375 206.095 129.313 205.983 129.201C205.872 129.089 205.809 128.937 205.809 128.779C205.809 128.621 205.872 128.47 205.983 128.358C206.095 128.246 206.247 128.183 206.406 128.183H210.991C211.149 128.183 211.301 128.246 211.413 128.358C211.525 128.47 211.588 128.621 211.588 128.779C211.588 128.937 211.525 129.089 211.413 129.201C211.301 129.313 211.149 129.375 210.991 129.375Z" fill="#E6E6E6"/>
<path d="M247.767 111.317H199.09V111.515H247.767V111.317Z" fill="#FAF8ED"/>
</g>
<path d="M172.492 105.843H14.8945V4.35417C14.8945 1.95447 16.8465 0 19.2487 0H168.138C170.538 0 172.492 1.95196 172.492 4.35417V105.843Z" fill="#4F77C5"/>
<path d="M185.611 116.624H1.38517C0.748769 116.624 0.228081 116.229 0.0545179 115.616C-0.11653 115.004 0.122432 114.393 0.66576 114.064L15.0262 105.302H172.546L172.591 105.33L186.356 114.076C186.886 114.413 187.118 115.022 186.942 115.628C186.766 116.232 186.245 116.624 185.616 116.624H185.611Z" fill="#DFDFDF"/>
<path d="M168.178 6.46948H19.0273V99.195H168.178V6.46948Z" fill="#0D1323"/>
<rect x="22.0391" y="95.074" width="142.926" height="0.62963" rx="0.314815" fill="#585959"/>
<circle cx="22.9835" cy="95.3888" r="0.944444" fill="#F4CF93"/>
<path d="M173.928 111.055H13.9961L21.902 104.641H166.382L173.928 111.055Z" fill="#2F2E41"/>
<path d="M131.522 115.367H55.6875L58.5626 111.055H128.647L131.522 115.367Z" fill="#2F2E41"/>
<defs>
<clipPath id="clip0_576_2732">
<rect width="56" height="51" fill="white" transform="translate(192 84)"/>
</clipPath>
</defs>
</svg>
