<svg width="1400" height="257" viewBox="0 0 1400 257" fill="none" xmlns="http://www.w3.org/2000/svg">
<g opacity="0.4">
<path d="M124.039 185.41L219.021 0H247.011V250.039H227.529V25.4336H226.81L125.457 220.367H121.203L20.2005 25.4336H19.4819V250.039H0V0H27.9894L123.321 185.41H124.039Z" fill="#29406D"/>
<path d="M299.141 172.346C299.141 125.369 334.938 88.2832 383.847 88.2832C432.756 88.2832 468.204 125.369 468.204 172.346C468.204 219.323 432.406 256.757 383.847 256.757C335.288 256.757 299.141 219.323 299.141 172.346ZM449.052 172.346C449.052 134.912 421.063 105.239 383.847 105.239C346.632 105.239 318.273 134.912 318.273 172.346C318.273 209.78 346.981 239.801 383.847 239.801C420.713 239.801 449.052 210.129 449.052 172.346Z" fill="#29406D"/>
<path d="M489.128 95H509.328L563.54 218.607H564.259L618.489 95H637.971L564.958 255.693H562.471L489.108 95H489.128Z" fill="#29406D"/>
<path d="M667.767 21.9145C667.767 13.4366 674.157 7.08789 681.946 7.08789C689.735 7.08789 696.475 13.8043 696.475 21.9145C696.475 30.0246 690.084 36.3927 681.946 36.3927C673.807 36.3927 667.767 30.3923 667.767 21.9145ZM673.069 93.241H691.153V250.043H673.069V93.241Z" fill="#29406D"/>
<path d="M758.492 174.475V176.953C758.492 215.8 784.714 240.169 818.744 240.169C842.13 240.169 859.495 229.562 872.975 207.67L875.092 206.954L888.203 215.781C873.324 242.279 848.501 256.757 818.025 256.757C771.253 256.757 739.34 222.845 739.34 172.694C739.34 122.543 771.233 88.2832 816.238 88.2832C861.243 88.2832 890.3 119.001 890.3 169.52C890.3 171.281 890.301 172.346 889.951 174.475H758.472H758.492ZM759.21 159.281H871.207C869.789 125.369 848.171 104.542 816.277 104.542C784.383 104.542 762.765 125.737 759.21 159.281Z" fill="#29406D"/>
<path d="M1068.61 164.215L1150.83 0H1196.91V250.039H1162.88V44.8476H1162.18L1071.1 222.844H1064.71L973.264 44.8476H972.545L972.894 250.039H938.515V0H984.937L1067.88 164.215H1068.58H1068.61Z" fill="#29406D"/>
<path d="M1275.96 176.928V178.689C1275.96 210.123 1297.23 229.537 1325.22 229.537C1344.7 229.537 1358.53 220.711 1370.57 201.994L1373.41 201.277L1397.51 214.691C1381.92 241.886 1356.39 256.732 1324.15 256.732C1274.89 256.732 1241.93 221.775 1241.93 171.624C1241.93 121.473 1275.24 86.1484 1322.38 86.1484C1369.52 86.1484 1400 117.582 1400 170.908C1400 173.018 1400 174.082 1399.65 176.908H1275.96V176.928ZM1276.66 154.339H1366.69C1364.92 128.209 1347.91 112.666 1322.73 112.666C1297.56 112.666 1280.91 127.841 1276.66 154.339Z" fill="#29406D"/>
</g>
</svg>
