<svg width="210" height="183" viewBox="0 0 210 183" fill="none" xmlns="http://www.w3.org/2000/svg">
<g clip-path="url(#clip0_576_2573)">
<circle cx="75.0938" cy="101.687" r="15" transform="rotate(-15 75.0938 101.687)" fill="#4F77C5"/>
<path d="M78.9614 116.125C70.9999 118.258 62.7872 113.517 60.654 105.555C58.5207 97.5938 63.2623 89.3812 71.2237 87.2479C79.1852 85.1146 87.3979 89.8562 89.5311 97.8177C91.6644 105.779 86.9228 113.992 78.9614 116.125ZM71.2507 87.3485C63.3447 89.4669 58.6362 97.6223 60.7546 105.528C62.873 113.434 71.0284 118.143 78.9344 116.024C86.8404 113.906 91.5489 105.751 89.4305 97.8446C87.3121 89.9387 79.1567 85.2301 71.2507 87.3485Z" fill="#29406D"/>
<path d="M64.93 104.41C65.6522 107.105 67.4155 109.403 69.832 110.798C72.2484 112.193 75.1201 112.571 77.8154 111.849L72.3694 91.5243C69.6742 92.2465 67.3762 94.0098 65.9811 96.4263C64.5859 98.8427 64.2078 101.714 64.93 104.41Z" fill="#162542"/>
<path d="M72.3711 91.5239L77.8171 111.849C80.5123 111.126 82.8102 109.363 84.2054 106.947C85.6005 104.53 85.9786 101.659 85.2564 98.9633C84.5342 96.2681 82.771 93.9701 80.3545 92.575C77.938 91.1798 75.0663 90.8017 72.3711 91.5239Z" fill="#162542"/>
<path d="M75.6049 103.598C76.3829 103.39 76.8446 102.59 76.6361 101.812C76.4277 101.034 75.628 100.572 74.85 100.781C74.0721 100.989 73.6104 101.789 73.8189 102.567C74.0273 103.345 74.827 103.806 75.6049 103.598Z" fill="#4F77C5"/>
<path d="M80.2927 100.468L77.6739 101.725L75.0551 102.983L74.8249 102.294L74.5947 101.605L77.4437 101.036L80.2927 100.468Z" fill="#4F77C5"/>
<path d="M72.585 110.829L73.8047 106.244L75.0245 101.66L75.4197 101.783L75.8149 101.907L74.1999 106.368L72.585 110.829Z" fill="#4F77C5"/>
<circle cx="120.371" cy="89.6818" r="15" transform="rotate(-15 120.371 89.6818)" fill="#4F77C5"/>
<path d="M124.239 104.12C116.277 106.253 108.065 101.512 105.931 93.5504C103.798 85.589 108.54 77.3763 116.501 75.243C124.463 73.1097 132.675 77.8513 134.808 85.8128C136.942 93.7743 132.2 101.987 124.239 104.12ZM116.528 75.3436C108.622 77.462 103.914 85.6175 106.032 93.5234C108.15 101.429 116.306 106.138 124.212 104.02C132.118 101.901 136.826 93.7457 134.708 85.8397C132.589 77.9338 124.434 73.2252 116.528 75.3436Z" fill="#29406D"/>
<path d="M110.207 92.4048C110.93 95.1 112.693 97.3979 115.109 98.7931C117.526 100.188 120.397 100.566 123.093 99.8441L117.647 79.5194C114.951 80.2416 112.654 82.0049 111.258 84.4214C109.863 86.8378 109.485 89.7096 110.207 92.4048Z" fill="#162542"/>
<path d="M117.648 79.519L123.094 99.8437C125.79 99.1215 128.088 97.3583 129.483 94.9418C130.878 92.5253 131.256 89.6536 130.534 86.9584C129.812 84.2632 128.048 81.9652 125.632 80.5701C123.215 79.1749 120.344 78.7969 117.648 79.519Z" fill="#162542"/>
<path d="M120.882 91.5932C121.66 91.3847 122.122 90.585 121.913 89.8071C121.705 89.0291 120.905 88.5674 120.127 88.7759C119.349 88.9843 118.888 89.784 119.096 90.562C119.305 91.3399 120.104 91.8016 120.882 91.5932Z" fill="#4F77C5"/>
<path d="M125.57 88.4627L122.951 89.7205L120.332 90.9782L120.102 90.289L119.872 89.5998L122.721 89.0312L125.57 88.4627Z" fill="#4F77C5"/>
<path d="M117.862 98.824L119.082 94.2393L120.302 89.6548L120.697 89.7786L121.092 89.9024L119.477 94.3632L117.862 98.824Z" fill="#4F77C5"/>
<circle cx="120.371" cy="56.1154" r="15" transform="rotate(-15 120.371 56.1154)" fill="#4F77C5"/>
<path d="M124.239 70.5541C116.277 72.6873 108.065 67.9457 105.931 59.9842C103.798 52.0228 108.54 43.8101 116.501 41.6768C124.463 39.5436 132.675 44.2852 134.808 52.2466C136.942 60.2081 132.2 68.4208 124.239 70.5541ZM116.528 41.7775C108.622 43.8959 103.914 52.0513 106.032 59.9573C108.15 67.8632 116.306 72.5718 124.212 70.4534C132.118 68.335 136.826 60.1796 134.708 52.2736C132.589 44.3676 124.434 39.6591 116.528 41.7775Z" fill="#29406D"/>
<path d="M110.211 58.8381C110.933 61.5333 112.697 63.8313 115.113 65.2264C117.53 66.6216 120.401 66.9997 123.097 66.2775L117.651 45.9528C114.955 46.675 112.657 48.4382 111.262 50.8547C109.867 53.2712 109.489 56.1429 110.211 58.8381Z" fill="#162542"/>
<path d="M117.648 45.9526L123.094 66.2773C125.79 65.5551 128.088 63.7919 129.483 61.3754C130.878 58.9589 131.256 56.0872 130.534 53.392C129.812 50.6968 128.048 48.3988 125.632 47.0037C123.215 45.6085 120.344 45.2305 117.648 45.9526Z" fill="#162542"/>
<path d="M120.882 58.0268C121.66 57.8183 122.122 57.0186 121.913 56.2407C121.705 55.4627 120.905 55.001 120.127 55.2095C119.349 55.4179 118.888 56.2176 119.096 56.9956C119.305 57.7735 120.104 58.2352 120.882 58.0268Z" fill="#4F77C5"/>
<path d="M123.099 51.7096L122.137 54.4508L121.175 57.1919L120.524 56.8674L119.874 56.5428L121.487 54.1262L123.099 51.7096Z" fill="#4F77C5"/>
<path d="M112.044 60.8466L116.148 58.4672L120.252 56.088L120.444 56.455L120.636 56.822L116.34 58.8343L112.044 60.8466Z" fill="#4F77C5"/>
<circle cx="89.3712" cy="68.1134" r="15" transform="rotate(-15 89.3712 68.1134)" fill="#4F77C5"/>
<path d="M93.2387 82.5519C85.2773 84.6851 77.0646 79.9435 74.9313 71.982C72.798 64.0206 77.5396 55.8079 85.5011 53.6747C93.4625 51.5414 101.675 56.283 103.808 64.2444C105.942 72.2059 101.2 80.4186 93.2387 82.5519ZM85.528 53.7753C77.6221 55.8937 72.9135 64.0491 75.0319 71.9551C77.1503 79.861 85.3058 84.5696 93.2117 82.4512C101.118 80.3328 105.826 72.1774 103.708 64.2714C101.589 56.3654 93.434 51.6569 85.528 53.7753Z" fill="#29406D"/>
<path d="M79.2074 70.8362C79.9295 73.5314 81.6928 75.8293 84.1093 77.2245C86.5258 78.6196 89.3975 78.9977 92.0927 78.2755L86.6467 57.9508C83.9515 58.673 81.6536 60.4363 80.2584 62.8528C78.8633 65.2692 78.4852 68.141 79.2074 70.8362Z" fill="#162542"/>
<path d="M86.6484 57.9512L92.0944 78.2759C94.7896 77.5537 97.0876 75.7904 98.4827 73.3739C99.8779 70.9575 100.256 68.0857 99.5338 65.3905C98.8116 62.6953 97.0483 60.3974 94.6318 59.0022C92.2154 57.6071 89.3437 57.229 86.6484 57.9512Z" fill="#162542"/>
<path d="M89.8823 70.0248C90.6603 69.8163 91.1219 69.0167 90.9135 68.2387C90.705 67.4607 89.9054 66.9991 89.1274 67.2075C88.3494 67.416 87.8877 68.2156 88.0962 68.9936C88.3047 69.7716 89.1043 70.2333 89.8823 70.0248Z" fill="#4F77C5"/>
<path d="M85.5912 65.3374L87.9898 66.9764L90.3885 68.6155L89.9067 69.1595L89.4249 69.7035L87.5081 67.5204L85.5912 65.3374Z" fill="#4F77C5"/>
<path d="M95.5953 75.3477L92.2348 71.999L88.8743 68.6504L89.1791 68.3701L89.484 68.0898L92.5396 71.7187L95.5953 75.3477Z" fill="#4F77C5"/>
<circle cx="114.371" cy="23.1134" r="15" transform="rotate(-15 114.371 23.1134)" fill="#4F77C5"/>
<path d="M118.239 37.5521C110.277 39.6854 102.065 34.9438 99.9313 26.9823C97.798 19.0208 102.54 10.8082 110.501 8.6749C118.463 6.54163 126.675 11.2832 128.808 19.2447C130.942 27.2062 126.2 35.4188 118.239 37.5521ZM110.528 8.77551C102.622 10.8939 97.9135 19.0493 100.032 26.9553C102.15 34.8613 110.306 39.5699 118.212 37.4515C126.118 35.3331 130.826 27.1776 128.708 19.2716C126.589 11.3657 118.434 6.65711 110.528 8.77551Z" fill="#29406D"/>
<path d="M104.211 25.8362C104.933 28.5314 106.697 30.8293 109.113 32.2245C111.53 33.6196 114.401 33.9977 117.097 33.2755L111.651 12.9508C108.955 13.673 106.657 15.4363 105.262 17.8528C103.867 20.2692 103.489 23.141 104.211 25.8362Z" fill="#162542"/>
<path d="M111.648 12.9507L117.094 33.2754C119.79 32.5532 122.088 30.7899 123.483 28.3734C124.878 25.957 125.256 23.0853 124.534 20.39C123.812 17.6948 122.048 15.3969 119.632 14.0017C117.215 12.6066 114.344 12.2285 111.648 12.9507Z" fill="#162542"/>
<path d="M114.882 25.0248C115.66 24.8163 116.122 24.0167 115.913 23.2387C115.705 22.4607 114.905 21.9991 114.127 22.2075C113.349 22.416 112.888 23.2156 113.096 23.9936C113.305 24.7716 114.104 25.2333 114.882 25.0248Z" fill="#4F77C5"/>
<path d="M116.389 28.7844L115.131 26.1656L113.873 23.5468L114.563 23.3166L115.252 23.0864L115.82 25.9354L116.389 28.7844Z" fill="#4F77C5"/>
<path d="M113.759 33.0449L113.751 28.3007L113.743 23.5567L114.156 23.574L114.57 23.5914L114.165 28.3181L113.759 33.0449Z" fill="#4F77C5"/>
<circle cx="48.3712" cy="39.1144" r="15" transform="rotate(-15 48.3712 39.1144)" fill="#4F77C5"/>
<path d="M52.2387 53.5531C44.2773 55.6863 36.0646 50.9448 33.9313 42.9833C31.798 35.0218 36.5396 26.8091 44.5011 24.6759C52.4625 22.5426 60.6752 27.2842 62.8085 35.2456C64.9417 43.2071 60.2001 51.4198 52.2387 53.5531ZM44.528 24.7765C36.6221 26.8949 31.9135 35.0503 34.0319 42.9563C36.1503 50.8623 44.3058 55.5709 52.2117 53.4525C60.1177 51.3341 64.8262 43.1786 62.7078 35.2726C60.5894 27.3666 52.434 22.6581 44.528 24.7765Z" fill="#29406D"/>
<path d="M38.2113 41.8372C38.9335 44.5324 40.6967 46.8303 43.1132 48.2255C45.5297 49.6206 48.4014 49.9987 51.0966 49.2765L45.6506 28.9518C42.9554 29.674 40.6575 31.4373 39.2623 33.8537C37.8672 36.2702 37.4891 39.1419 38.2113 41.8372Z" fill="#162542"/>
<path d="M45.6484 28.9517L51.0944 49.2763C53.7896 48.5542 56.0876 46.7909 57.4827 44.3744C58.8779 41.958 59.256 39.0862 58.5338 36.391C57.8116 33.6958 56.0483 31.3978 53.6318 30.0027C51.2154 28.6075 48.3437 28.2295 45.6484 28.9517Z" fill="#162542"/>
<path d="M48.8823 41.0258C49.6603 40.8173 50.1219 40.0177 49.9135 39.2397C49.705 38.4617 48.9054 38 48.1274 38.2085C47.3494 38.4169 46.8877 39.2166 47.0962 39.9946C47.3047 40.7726 48.1043 41.2342 48.8823 41.0258Z" fill="#4F77C5"/>
<path d="M50.2949 34.6015L49.7788 37.4605L49.2628 40.3195L48.5694 40.102L47.8761 39.8845L49.0855 37.243L50.2949 34.6015Z" fill="#4F77C5"/>
<path d="M56.9064 35.2705L52.8223 37.6844L48.7382 40.0981L48.5433 39.7328L48.3483 39.3674L52.6273 37.3189L56.9064 35.2705Z" fill="#4F77C5"/>
<circle cx="81.3712" cy="33.1134" r="15" transform="rotate(-15 81.3712 33.1134)" fill="#4F77C5"/>
<path d="M85.2387 47.5521C77.2773 49.6854 69.0646 44.9438 66.9313 36.9823C64.798 29.0208 69.5396 20.8082 77.5011 18.6749C85.4625 16.5416 93.6752 21.2832 95.8085 29.2447C97.9417 37.2062 93.2001 45.4188 85.2387 47.5521ZM77.528 18.7755C69.6221 20.8939 64.9135 29.0493 67.0319 36.9553C69.1503 44.8613 77.3058 49.5699 85.2117 47.4515C93.1177 45.3331 97.8262 37.1776 95.7078 29.2716C93.5894 21.3657 85.434 16.6571 77.528 18.7755Z" fill="#29406D"/>
<path d="M71.2113 35.8362C71.9335 38.5314 73.6967 40.8293 76.1132 42.2245C78.5297 43.6196 81.4014 43.9977 84.0966 43.2755L78.6506 22.9508C75.9554 23.673 73.6575 25.4363 72.2623 27.8528C70.8672 30.2692 70.4891 33.141 71.2113 35.8362Z" fill="#162542"/>
<path d="M78.6484 22.9507L84.0944 43.2754C86.7896 42.5532 89.0876 40.7899 90.4827 38.3734C91.8779 35.957 92.256 33.0853 91.5338 30.39C90.8116 27.6948 89.0483 25.3969 86.6318 24.0017C84.2154 22.6066 81.3437 22.2285 78.6484 22.9507Z" fill="#162542"/>
<path d="M81.8823 35.0248C82.6603 34.8163 83.1219 34.0167 82.9135 33.2387C82.705 32.4607 81.9054 31.9991 81.1274 32.2075C80.3494 32.416 79.8877 33.2156 80.0962 33.9936C80.3047 34.7716 81.1043 35.2333 81.8823 35.0248Z" fill="#4F77C5"/>
<path d="M82.0293 39.3602L81.4508 36.5131L80.8722 33.6661L81.5969 33.6116L82.3215 33.5571L82.1754 36.4586L82.0293 39.3602Z" fill="#4F77C5"/>
<path d="M86.9294 40.896L83.9018 37.2435L80.8743 33.591L81.2043 33.3409L81.5344 33.0908L84.2319 36.9933L86.9294 40.896Z" fill="#4F77C5"/>
<circle cx="26.3712" cy="94.1066" r="15" transform="rotate(-15 26.3712 94.1066)" fill="#4F77C5"/>
<path d="M30.2387 108.545C22.2773 110.678 14.0646 105.937 11.9313 97.9752C9.79804 90.0138 14.5396 81.8011 22.5011 79.6678C30.4625 77.5346 38.6752 82.2761 40.8085 90.2376C42.9417 98.1991 38.2001 106.412 30.2387 108.545ZM22.528 79.7684C14.6221 81.8868 9.91352 90.0423 12.0319 97.9482C14.1503 105.854 22.3058 110.563 30.2117 108.444C38.1177 106.326 42.8262 98.1705 40.7078 90.2646C38.5894 82.3586 30.434 77.65 22.528 79.7684Z" fill="#29406D"/>
<path d="M16.2074 96.8296C16.9295 99.5248 18.6928 101.823 21.1093 103.218C23.5258 104.613 26.3975 104.991 29.0927 104.269L23.6467 83.9442C20.9515 84.6664 18.6536 86.4297 17.2584 88.8462C15.8633 91.2626 15.4852 94.1344 16.2074 96.8296Z" fill="#162542"/>
<path d="M23.6484 83.9438L29.0944 104.269C31.7896 103.546 34.0876 101.783 35.4827 99.3666C36.8779 96.9501 37.256 94.0784 36.5338 91.3832C35.8116 88.688 34.0483 86.39 31.6318 84.9949C29.2154 83.5997 26.3437 83.2217 23.6484 83.9438Z" fill="#162542"/>
<path d="M26.8823 96.018C27.6603 95.8095 28.1219 95.0098 27.9135 94.2319C27.705 93.4539 26.9054 92.9922 26.1274 93.2007C25.3494 93.4091 24.8877 94.2088 25.0962 94.9868C25.3047 95.7647 26.1043 96.2264 26.8823 96.018Z" fill="#4F77C5"/>
<path d="M26.2701 100.341L26.0344 97.4456L25.7986 94.55L26.5246 94.582L27.2506 94.6141L26.7603 97.4777L26.2701 100.341Z" fill="#4F77C5"/>
<path d="M18.6007 89.6765L22.7135 92.0413L26.8261 94.4061L26.6042 94.7557L26.3823 95.1054L22.4916 92.391L18.6007 89.6765Z" fill="#4F77C5"/>
<circle cx="21.3712" cy="61.1046" r="15" transform="rotate(-15 21.3712 61.1046)" fill="#4F77C5"/>
<path d="M25.2387 75.5433C17.2773 77.6766 9.06458 72.935 6.93131 64.9735C4.79804 57.012 9.53964 48.7994 17.5011 46.6661C25.4625 44.5328 33.6752 49.2744 35.8085 57.2359C37.9417 65.1974 33.2001 73.4101 25.2387 75.5433ZM17.528 46.7667C9.62207 48.8851 4.91352 57.0406 7.03192 64.9465C9.15032 72.8525 17.3058 77.5611 25.2117 75.4427C33.1177 73.3243 37.8262 65.1688 35.7078 57.2628C33.5894 49.3569 25.434 44.6483 17.528 46.7667Z" fill="#29406D"/>
<path d="M11.2113 63.8274C11.9335 66.5226 13.6967 68.8206 16.1132 70.2157C18.5297 71.6109 21.4014 71.9889 24.0966 71.2667L18.6506 50.942C15.9554 51.6642 13.6575 53.4275 12.2623 55.844C10.8672 58.2604 10.4891 61.1322 11.2113 63.8274Z" fill="#162542"/>
<path d="M18.6484 50.9419L24.0944 71.2666C26.7896 70.5444 29.0876 68.7811 30.4827 66.3647C31.8779 63.9482 32.256 61.0765 31.5338 58.3812C30.8116 55.686 29.0483 53.3881 26.6318 51.9929C24.2154 50.5978 21.3437 50.2197 18.6484 50.9419Z" fill="#162542"/>
<path d="M21.8823 63.016C22.6603 62.8076 23.1219 62.0079 22.9135 61.2299C22.705 60.452 21.9054 59.9903 21.1274 60.1987C20.3494 60.4072 19.8877 61.2068 20.0962 61.9848C20.3047 62.7628 21.1043 63.2245 21.8823 63.016Z" fill="#4F77C5"/>
<path d="M26.5701 59.8855L23.9512 61.1433L21.3324 62.4011L21.1022 61.7119L20.872 61.0226L23.721 60.4541L26.5701 59.8855Z" fill="#4F77C5"/>
<path d="M18.8623 70.2468L20.0821 65.6621L21.3019 61.0776L21.697 61.2014L22.0922 61.3253L20.4773 65.786L18.8623 70.2468Z" fill="#4F77C5"/>
<circle cx="55.3712" cy="73.1086" r="15" transform="rotate(-15 55.3712 73.1086)" fill="#4F77C5"/>
<path d="M59.2387 87.547C51.2773 89.6802 43.0646 84.9386 40.9313 76.9772C38.798 69.0157 43.5396 60.803 51.5011 58.6698C59.4625 56.5365 67.6752 61.2781 69.8085 69.2395C71.9417 77.201 67.2001 85.4137 59.2387 87.547ZM51.528 58.7704C43.6221 60.8888 38.9135 69.0442 41.0319 76.9502C43.1503 84.8562 51.3058 89.5648 59.2117 87.4464C67.1177 85.328 71.8262 77.1725 69.7078 69.2665C67.5894 61.3605 59.434 56.652 51.528 58.7704Z" fill="#29406D"/>
<path d="M45.2074 75.8315C45.9295 78.5268 47.6928 80.8247 50.1093 82.2199C52.5258 83.615 55.3975 83.9931 58.0927 83.2709L52.6467 62.9462C49.9515 63.6684 47.6536 65.4317 46.2584 67.8481C44.8633 70.2646 44.4852 73.1363 45.2074 75.8315Z" fill="#162542"/>
<path d="M52.6484 62.9458L58.0944 83.2705C60.7896 82.5483 63.0876 80.785 64.4827 78.3686C65.8779 75.9521 66.256 73.0804 65.5338 70.3852C64.8116 67.6899 63.0483 65.392 60.6318 63.9968C58.2154 62.6017 55.3437 62.2236 52.6484 62.9458Z" fill="#162542"/>
<path d="M55.8823 75.0199C56.6603 74.8115 57.1219 74.0118 56.9135 73.2338C56.705 72.4559 55.9054 71.9942 55.1274 72.2026C54.3494 72.4111 53.8877 73.2107 54.0962 73.9887C54.3047 74.7667 55.1043 75.2284 55.8823 75.0199Z" fill="#4F77C5"/>
<path d="M49.8254 72.3859L52.7271 72.5286L55.6288 72.6714L55.5026 73.387L55.3764 74.1026L52.6009 73.2443L49.8254 72.3859Z" fill="#4F77C5"/>
<path d="M59.6325 81.6787L57.2531 77.5744L54.8739 73.4701L55.2409 73.2783L55.6079 73.0864L57.6202 77.3825L59.6325 81.6787Z" fill="#4F77C5"/>
</g>
<path d="M115.273 115.093V112.95C115.273 111.372 114.646 109.858 113.53 108.743C112.414 107.627 110.9 107 109.322 107H24.6549C23.0766 107 21.563 107.627 20.4469 108.743C19.3308 109.858 18.7035 111.372 18.7031 112.95V116.903L115.273 115.093Z" fill="#29406D"/>
<path d="M19.3203 112.778C20.1666 113.088 20.7203 113.273 21.2842 113.368C21.9844 113.485 22.6908 113.462 23.9678 113.424V113.425H112.521C113.753 113.425 114.935 113.913 115.807 114.784C116.624 115.6 117.106 116.689 117.165 117.837L117.172 118.067V177.618L117.166 177.848C117.109 178.998 116.626 180.088 115.809 180.905C114.936 181.777 113.754 182.267 112.521 182.267H23.9678C22.7352 182.267 21.5531 181.777 20.6816 180.905C19.8101 180.033 19.3203 178.851 19.3203 177.618V112.778Z" fill="#162542" stroke="#7E90B9"/>
<path d="M117.559 139.465V158.512H99.0893C96.5636 158.512 94.1415 157.509 92.3556 155.723C90.5697 153.938 89.5664 151.515 89.5664 148.99C89.5664 146.464 90.5697 144.042 92.3556 142.256C94.1415 140.47 96.5636 139.467 99.0893 139.467L117.559 139.465Z" fill="#29406D"/>
<path d="M100.229 152.704C102.279 152.704 103.942 151.042 103.942 148.991C103.942 146.941 102.279 145.278 100.229 145.278C98.178 145.278 96.5156 146.941 96.5156 148.991C96.5156 151.042 98.178 152.704 100.229 152.704Z" fill="#7E90B9"/>
<path d="M134.52 125.872V118.24H136.312V125.872H134.52ZM131.8 122.928V121.2H139.016V122.928H131.8ZM139.009 128V126.08C140.065 125.216 140.945 124.475 141.649 123.856C142.364 123.227 142.929 122.672 143.345 122.192C143.772 121.712 144.076 121.275 144.257 120.88C144.439 120.485 144.529 120.091 144.529 119.696C144.529 119.227 144.401 118.864 144.145 118.608C143.9 118.341 143.553 118.208 143.105 118.208C142.636 118.208 142.247 118.352 141.937 118.64C141.628 118.928 141.436 119.323 141.361 119.824H138.897C139.015 118.736 139.457 117.883 140.225 117.264C140.993 116.635 141.985 116.32 143.201 116.32C144.439 116.32 145.404 116.64 146.097 117.28C146.791 117.909 147.137 118.789 147.137 119.92C147.137 120.453 147.047 120.965 146.865 121.456C146.695 121.947 146.407 122.453 146.001 122.976C145.596 123.499 145.041 124.075 144.337 124.704C143.644 125.323 142.775 126.032 141.729 126.832L141.137 126.112H147.361V128H139.009ZM153.05 128.16C152.09 128.16 151.231 127.909 150.474 127.408C149.727 126.896 149.14 126.192 148.714 125.296C148.287 124.389 148.074 123.355 148.074 122.192C148.074 121.029 148.287 120.011 148.714 119.136C149.14 118.251 149.727 117.563 150.474 117.072C151.231 116.571 152.09 116.32 153.05 116.32C154.02 116.32 154.879 116.571 155.626 117.072C156.372 117.563 156.959 118.251 157.386 119.136C157.812 120.011 158.026 121.029 158.026 122.192C158.026 123.365 157.812 124.4 157.386 125.296C156.959 126.192 156.367 126.896 155.61 127.408C154.863 127.909 154.01 128.16 153.05 128.16ZM153.05 126.112C153.594 126.112 154.042 125.931 154.394 125.568C154.746 125.205 155.007 124.725 155.178 124.128C155.348 123.531 155.434 122.88 155.434 122.176C155.434 121.472 155.348 120.832 155.178 120.256C155.007 119.68 154.746 119.221 154.394 118.88C154.042 118.539 153.594 118.368 153.05 118.368C152.506 118.368 152.058 118.544 151.706 118.896C151.354 119.237 151.092 119.696 150.922 120.272C150.751 120.848 150.666 121.483 150.666 122.176C150.666 122.891 150.751 123.547 150.922 124.144C151.092 124.741 151.354 125.221 151.706 125.584C152.068 125.936 152.516 126.112 153.05 126.112ZM164.128 128.16C163.168 128.16 162.309 127.909 161.552 127.408C160.805 126.896 160.219 126.192 159.792 125.296C159.365 124.389 159.152 123.355 159.152 122.192C159.152 121.029 159.365 120.011 159.792 119.136C160.219 118.251 160.805 117.563 161.552 117.072C162.309 116.571 163.168 116.32 164.128 116.32C165.099 116.32 165.957 116.571 166.704 117.072C167.451 117.563 168.037 118.251 168.464 119.136C168.891 120.011 169.104 121.029 169.104 122.192C169.104 123.365 168.891 124.4 168.464 125.296C168.037 126.192 167.445 126.896 166.688 127.408C165.941 127.909 165.088 128.16 164.128 128.16ZM164.128 126.112C164.672 126.112 165.12 125.931 165.472 125.568C165.824 125.205 166.085 124.725 166.256 124.128C166.427 123.531 166.512 122.88 166.512 122.176C166.512 121.472 166.427 120.832 166.256 120.256C166.085 119.68 165.824 119.221 165.472 118.88C165.12 118.539 164.672 118.368 164.128 118.368C163.584 118.368 163.136 118.544 162.784 118.896C162.432 119.237 162.171 119.696 162 120.272C161.829 120.848 161.744 121.483 161.744 122.176C161.744 122.891 161.829 123.547 162 124.144C162.171 124.741 162.432 125.221 162.784 125.584C163.147 125.936 163.595 126.112 164.128 126.112ZM173.585 128V119.84H175.937V121.76H175.985V128H173.585ZM179.073 128V122.816C179.073 122.4 178.961 122.096 178.737 121.904C178.524 121.701 178.22 121.6 177.825 121.6C177.484 121.6 177.169 121.68 176.881 121.84C176.604 121.989 176.385 122.208 176.225 122.496C176.065 122.773 175.985 123.104 175.985 123.488L175.777 121.648C176.044 121.051 176.428 120.576 176.929 120.224C177.441 119.861 178.054 119.68 178.769 119.68C179.622 119.68 180.284 119.92 180.753 120.4C181.233 120.88 181.473 121.483 181.473 122.208V128H179.073ZM184.561 128V122.816C184.561 122.4 184.449 122.096 184.225 121.904C184.012 121.701 183.708 121.6 183.313 121.6C182.972 121.6 182.657 121.68 182.369 121.84C182.092 121.989 181.873 122.208 181.713 122.496C181.553 122.773 181.473 123.104 181.473 123.488L181.105 121.648C181.372 121.051 181.766 120.576 182.289 120.224C182.822 119.861 183.462 119.68 184.209 119.68C185.094 119.68 185.772 119.931 186.241 120.432C186.721 120.923 186.961 121.568 186.961 122.368V128H184.561ZM188.694 128V119.84H191.094V128H188.694ZM188.614 118.752V116.16H191.174V118.752H188.614ZM193.007 128V119.84H195.359V121.76H195.407V128H193.007ZM198.687 128V122.944C198.687 122.496 198.57 122.16 198.335 121.936C198.111 121.712 197.78 121.6 197.343 121.6C196.97 121.6 196.634 121.685 196.335 121.856C196.047 122.027 195.818 122.261 195.647 122.56C195.487 122.859 195.407 123.211 195.407 123.616L195.199 121.648C195.466 121.051 195.855 120.576 196.367 120.224C196.89 119.861 197.53 119.68 198.287 119.68C199.194 119.68 199.887 119.936 200.367 120.448C200.847 120.949 201.087 121.627 201.087 122.48V128H198.687ZM206.178 128.16C204.983 128.16 204.034 127.92 203.33 127.44C202.626 126.96 202.242 126.299 202.178 125.456H204.322C204.375 125.819 204.557 126.096 204.866 126.288C205.186 126.469 205.623 126.56 206.178 126.56C206.679 126.56 207.042 126.491 207.266 126.352C207.501 126.203 207.618 125.995 207.618 125.728C207.618 125.525 207.549 125.371 207.41 125.264C207.282 125.147 207.042 125.051 206.69 124.976L205.378 124.704C204.407 124.501 203.693 124.197 203.234 123.792C202.775 123.376 202.546 122.843 202.546 122.192C202.546 121.403 202.85 120.789 203.458 120.352C204.066 119.904 204.914 119.68 206.002 119.68C207.079 119.68 207.938 119.899 208.578 120.336C209.218 120.763 209.57 121.36 209.634 122.128H207.49C207.447 121.851 207.298 121.643 207.042 121.504C206.786 121.355 206.423 121.28 205.954 121.28C205.527 121.28 205.207 121.344 204.994 121.472C204.791 121.589 204.69 121.76 204.69 121.984C204.69 122.176 204.775 122.331 204.946 122.448C205.117 122.555 205.399 122.651 205.794 122.736L207.266 123.04C208.087 123.211 208.706 123.531 209.122 124C209.549 124.459 209.762 125.003 209.762 125.632C209.762 126.432 209.447 127.056 208.818 127.504C208.199 127.941 207.319 128.16 206.178 128.16Z" fill="#DD9F8A"/>
<defs>
<clipPath id="clip0_576_2573">
<rect width="142" height="108" fill="white"/>
</clipPath>
</defs>
</svg>
