<svg width="38" height="40" viewBox="0 0 38 40" fill="none" xmlns="http://www.w3.org/2000/svg">
<path d="M4.65617 31.2533H9.12057L20.6824 39.3443C21.3056 39.7808 22.0286 40 22.7554 40C23.3345 40 23.9137 39.8623 24.4487 39.5771C25.653 38.9389 26.4009 37.6858 26.4009 36.3105V3.69039C26.4009 2.31506 25.653 1.06387 24.4487 0.423731C23.2463 -0.21641 21.8004 -0.125239 20.6824 0.65651L9.12057 8.74751H4.65617C2.08837 8.74751 1.31846e-06 10.8619 1.31846e-06 13.4593V26.5415C-0.00191638 29.1389 2.08837 31.2533 4.65617 31.2533ZM3.44994 13.4593C3.44994 12.7862 3.99073 12.2411 4.65617 12.2411H9.65945C10.0104 12.2411 10.3517 12.1325 10.6413 11.9308L22.648 3.52939C22.6768 3.50805 22.7477 3.46149 22.8475 3.51581C22.951 3.57012 22.951 3.65354 22.951 3.69039V36.3105C22.951 36.3473 22.951 36.4307 22.8475 36.485C22.7477 36.5374 22.6787 36.4909 22.648 36.4715L10.6413 28.0701C10.3517 27.8683 10.0104 27.7597 9.65945 27.7597H4.65617C3.99073 27.7597 3.45186 27.2146 3.45186 26.5415L3.44994 13.4593Z" fill="#7E90B9"/>
<path d="M29.2409 24.1756C29.5784 24.517 30.0195 24.6877 30.4605 24.6877C30.9016 24.6877 31.3446 24.517 31.6821 24.1756L33.3659 22.4705L35.0496 24.1756C35.3871 24.517 35.8282 24.6877 36.2712 24.6877C36.7142 24.6877 37.1533 24.517 37.4908 24.1756C38.1659 23.4927 38.1659 22.387 37.4908 21.7062L35.809 20.0011L37.4947 18.296C38.1678 17.6131 38.1678 16.5074 37.4947 15.8266C36.8215 15.1457 35.7285 15.1437 35.0534 15.8266L33.3697 17.5317L31.686 15.8266C31.0109 15.1437 29.9198 15.1437 29.2447 15.8266C28.5697 16.5094 28.5697 17.6151 29.2447 18.296L30.9246 20.0011L29.239 21.7062C28.5659 22.387 28.5659 23.4947 29.2409 24.1756Z" fill="#7E90B9"/>
</svg>
